<?xml version="1.0" standalone="no"?>
<!DOCTYPE svg PUBLIC "-//W3C//DTD SVG 20010904//EN"
 "http://www.w3.org/TR/2001/REC-SVG-20010904/DTD/svg10.dtd">
<svg version="1.0" xmlns="http://www.w3.org/2000/svg"
 width="512.000000pt" height="512.000000pt" viewBox="0 0 512.000000 512.000000"
 preserveAspectRatio="xMidYMid meet">

<g transform="translate(0.000000,512.000000) scale(0.100000,-0.100000)"
fill="#000000" stroke="none">
<path d="M193 4409 c-64 -25 -137 -93 -166 -157 l-22 -47 0 -1645 0 -1645 28
-57 c30 -61 74 -105 140 -140 l42 -23 2345 0 2345 0 42 23 c66 35 110 79 140
140 l28 57 3 1625 c3 1814 7 1687 -68 1773 -46 52 -98 73 -153 63 -27 -5 -142
-99 -524 -429 -715 -618 -1759 -1516 -1788 -1539 -24 -19 -26 -19 -48 -1 -12
10 -465 403 -1006 873 l-984 855 1809 5 c1796 5 1809 5 1844 25 93 54 91 188
-2 245 -33 20 -54 20 -1993 19 -1937 0 -1961 0 -2012 -20z m937 -1169 c428
-371 779 -677 779 -680 0 -3 -282 -248 -626 -545 -344 -296 -632 -549 -640
-561 -44 -68 -14 -171 59 -204 56 -25 86 -25 136 2 23 13 256 210 519 439 263
228 546 474 628 546 l151 130 133 -113 c146 -124 192 -147 291 -147 99 0 145
23 291 147 l134 114 65 -57 c36 -32 380 -331 765 -666 385 -334 713 -620 730
-636 l30 -29 -2143 0 -2142 0 0 1491 0 1492 30 -24 c17 -13 381 -328 810 -699z
m3698 -1381 l-3 -701 -775 672 c-426 370 -790 686 -809 702 -18 16 -32 30 -30
32 9 6 1302 1126 1449 1255 l165 144 3 -702 c1 -385 1 -1016 0 -1402z"/>
</g>
</svg>
