<?xml version="1.0" standalone="no"?>
<!DOCTYPE svg PUBLIC "-//W3C//DTD SVG 20010904//EN"
 "http://www.w3.org/TR/2001/REC-SVG-20010904/DTD/svg10.dtd">
<svg version="1.0" xmlns="http://www.w3.org/2000/svg"
 width="570.000000pt" height="570.000000pt" viewBox="0 0 570.000000 570.000000"
 preserveAspectRatio="xMidYMid meet">

<g transform="translate(0.000000,570.000000) scale(0.100000,-0.100000)"
fill="#000000" stroke="none">
<path d="M0 5600 c0 -60 4 -100 10 -100 6 0 10 9 10 20 0 11 7 20 15 20 8 0
15 7 15 15 0 8 9 15 20 15 13 0 20 7 20 19 0 10 9 21 20 24 11 3 20 12 20 21
0 9 7 16 15 16 8 0 15 7 15 15 0 8 9 15 20 15 11 0 20 5 20 10 0 6 -40 10
-100 10 l-100 0 0 -100z"/>
<path d="M655 5688 c-2 -7 -22 -82 -45 -166 -30 -111 -38 -157 -31 -170 7 -14
70 -35 239 -80 238 -64 273 -70 289 -49 6 6 36 109 67 227 32 118 60 223 62
233 4 14 -1 17 -30 17 -30 0 -37 -4 -42 -25 -8 -31 -17 -31 -129 0 -76 21
-111 25 -233 25 -105 0 -144 -3 -147 -12z m157 -125 c-2 -27 2 -34 23 -39 17
-4 25 -13 25 -28 0 -31 -7 -35 -40 -26 -26 8 -29 6 -35 -21 -7 -29 -27 -37
-53 -21 -9 6 -10 15 -3 35 9 23 7 26 -20 36 -47 16 -34 62 16 58 24 -2 31 2
33 21 3 19 9 23 30 20 24 -3 27 -7 24 -35z m296 -55 c33 -33 -6 -91 -47 -69
-27 15 -32 35 -15 60 17 23 44 27 62 9z m-101 -74 c12 -19 11 -24 -6 -45 -16
-21 -22 -22 -45 -11 -31 14 -36 55 -8 71 24 15 42 10 59 -15z"/>
<path d="M1700 5690 c0 -5 9 -10 20 -10 11 0 20 -7 20 -15 0 -8 7 -15 15 -15
8 0 15 -7 15 -16 0 -9 9 -18 20 -21 11 -3 20 -14 20 -24 0 -12 7 -19 20 -19
11 0 20 -7 20 -15 0 -8 7 -15 15 -15 8 0 15 -9 15 -20 0 -13 7 -20 20 -20 13
0 20 7 20 20 0 11 7 20 15 20 8 0 15 7 15 15 0 8 9 15 20 15 13 0 20 7 20 19
0 10 9 21 20 24 11 3 20 12 20 21 0 9 7 16 15 16 8 0 15 7 15 15 0 8 9 15 20
15 11 0 20 5 20 10 0 6 -73 10 -200 10 -127 0 -200 -4 -200 -10z"/>
<path d="M2555 5688 c-2 -7 -22 -82 -45 -166 -30 -111 -38 -157 -31 -170 7
-14 70 -35 239 -80 238 -64 273 -70 289 -49 6 6 36 109 67 227 32 118 60 223
62 233 4 14 -1 17 -30 17 -30 0 -37 -4 -42 -25 -8 -31 -17 -31 -129 0 -76 21
-111 25 -233 25 -105 0 -144 -3 -147 -12z m157 -125 c-2 -27 2 -34 23 -39 17
-4 25 -13 25 -28 0 -31 -7 -35 -40 -26 -26 8 -29 6 -35 -21 -7 -29 -27 -37
-53 -21 -9 6 -10 15 -3 35 9 23 7 26 -20 36 -47 16 -34 62 16 58 24 -2 31 2
33 21 3 19 9 23 30 20 24 -3 27 -7 24 -35z m296 -55 c33 -33 -6 -91 -47 -69
-27 15 -32 35 -15 60 17 23 44 27 62 9z m-101 -74 c12 -19 11 -24 -6 -45 -16
-21 -22 -22 -45 -11 -31 14 -36 55 -8 71 24 15 42 10 59 -15z"/>
<path d="M3600 5690 c0 -5 9 -10 20 -10 11 0 20 -7 20 -15 0 -8 7 -15 15 -15
8 0 15 -7 15 -16 0 -9 9 -18 20 -21 11 -3 20 -14 20 -24 0 -12 7 -19 20 -19
11 0 20 -7 20 -15 0 -8 7 -15 15 -15 8 0 15 -9 15 -20 0 -13 7 -20 20 -20 13
0 20 7 20 20 0 11 7 20 15 20 8 0 15 7 15 15 0 8 9 15 20 15 13 0 20 7 20 19
0 10 9 21 20 24 11 3 20 12 20 21 0 9 7 16 15 16 8 0 15 7 15 15 0 8 9 15 20
15 11 0 20 5 20 10 0 6 -73 10 -200 10 -127 0 -200 -4 -200 -10z"/>
<path d="M4455 5688 c-2 -7 -22 -82 -45 -166 -30 -111 -38 -157 -31 -170 7
-14 70 -35 239 -80 238 -64 273 -70 289 -49 6 6 36 109 67 227 32 118 60 223
62 233 4 14 -1 17 -30 17 -30 0 -37 -4 -42 -25 -8 -31 -17 -31 -129 0 -76 21
-111 25 -233 25 -105 0 -144 -3 -147 -12z m157 -125 c-2 -27 2 -34 23 -39 17
-4 25 -13 25 -28 0 -31 -7 -35 -40 -26 -26 8 -29 6 -35 -21 -7 -29 -27 -37
-53 -21 -9 6 -10 15 -3 35 9 23 7 26 -20 36 -47 16 -34 62 16 58 24 -2 31 2
33 21 3 19 9 23 30 20 24 -3 27 -7 24 -35z m296 -55 c33 -33 -6 -91 -47 -69
-27 15 -32 35 -15 60 17 23 44 27 62 9z m-101 -74 c12 -19 11 -24 -6 -45 -16
-21 -22 -22 -45 -11 -31 14 -36 55 -8 71 24 15 42 10 59 -15z"/>
<path d="M5500 5690 c0 -5 9 -10 20 -10 11 0 20 -7 20 -15 0 -8 7 -15 15 -15
8 0 15 -7 15 -16 0 -9 9 -18 20 -21 11 -3 20 -14 20 -24 0 -12 7 -19 20 -19
11 0 20 -7 20 -15 0 -8 7 -15 15 -15 8 0 15 -9 15 -20 0 -11 5 -20 10 -20 6 0
10 40 10 100 l0 100 -100 0 c-60 0 -100 -4 -100 -10z"/>
<path d="M1400 5585 c0 -8 -7 -18 -15 -21 -8 -4 -15 -10 -15 -15 0 -5 7 -9 15
-9 8 0 15 -7 15 -15 0 -8 5 -15 10 -15 6 0 10 7 10 15 0 8 7 15 15 15 8 0 15
5 15 10 0 6 -7 10 -15 10 -8 0 -15 6 -15 14 0 8 -4 18 -10 21 -5 3 -10 -1 -10
-10z"/>
<path d="M3300 5585 c0 -8 -7 -18 -15 -21 -8 -4 -15 -10 -15 -15 0 -5 7 -9 15
-9 8 0 15 -7 15 -15 0 -8 5 -15 10 -15 6 0 10 7 10 15 0 8 7 15 15 15 8 0 15
5 15 10 0 6 -7 10 -15 10 -8 0 -15 6 -15 14 0 8 -4 18 -10 21 -5 3 -10 -1 -10
-10z"/>
<path d="M5200 5585 c0 -8 -7 -18 -15 -21 -8 -4 -15 -10 -15 -15 0 -5 7 -9 15
-9 8 0 15 -7 15 -15 0 -8 5 -15 10 -15 6 0 10 7 10 15 0 8 7 15 15 15 8 0 15
5 15 10 0 6 -7 10 -15 10 -8 0 -15 6 -15 14 0 8 -4 18 -10 21 -5 3 -10 -1 -10
-10z"/>
<path d="M340 5510 c0 -13 -7 -20 -20 -20 -11 0 -20 -7 -20 -15 0 -8 9 -15 20
-15 13 0 20 -7 20 -20 0 -11 7 -20 15 -20 8 0 15 9 15 20 0 13 7 20 20 20 11
0 20 7 20 15 0 8 -9 15 -20 15 -13 0 -20 7 -20 20 0 11 -7 20 -15 20 -8 0 -15
-9 -15 -20z"/>
<path d="M2240 5510 c0 -13 -7 -20 -20 -20 -11 0 -20 -7 -20 -15 0 -8 9 -15
20 -15 13 0 20 -7 20 -20 0 -11 7 -20 15 -20 8 0 15 9 15 20 0 13 7 20 20 20
11 0 20 7 20 15 0 8 -9 15 -20 15 -13 0 -20 7 -20 20 0 11 -7 20 -15 20 -8 0
-15 -9 -15 -20z"/>
<path d="M4140 5510 c0 -13 -7 -20 -20 -20 -11 0 -20 -7 -20 -15 0 -8 9 -15
20 -15 13 0 20 -7 20 -20 0 -11 7 -20 15 -20 8 0 15 9 15 20 0 13 7 20 20 20
11 0 20 7 20 15 0 8 -9 15 -20 15 -13 0 -20 7 -20 20 0 11 -7 20 -15 20 -8 0
-15 -9 -15 -20z"/>
<path d="M1572 5358 c-7 -7 -12 -24 -12 -38 0 -34 17 -50 52 -50 18 0 33 8 44
25 15 23 15 27 0 50 -18 27 -63 34 -84 13z m63 -38 c0 -18 -6 -26 -21 -28 -26
-4 -40 24 -23 45 18 21 44 11 44 -17z"/>
<path d="M3472 5358 c-7 -7 -12 -24 -12 -38 0 -34 17 -50 52 -50 18 0 33 8 44
25 15 23 15 27 0 50 -18 27 -63 34 -84 13z m63 -38 c0 -18 -6 -26 -21 -28 -26
-4 -40 24 -23 45 18 21 44 11 44 -17z"/>
<path d="M5372 5358 c-7 -7 -12 -24 -12 -38 0 -34 17 -50 52 -50 18 0 33 8 44
25 15 23 15 27 0 50 -18 27 -63 34 -84 13z m63 -38 c0 -18 -6 -26 -21 -28 -26
-4 -40 24 -23 45 18 21 44 11 44 -17z"/>
<path d="M0 5283 c1 -15 7 -39 15 -53 19 -33 19 -81 0 -106 -18 -24 -20 -67
-3 -62 7 3 23 19 36 38 29 44 29 111 -1 164 -28 50 -47 58 -47 19z"/>
<path d="M1894 5297 c-3 -8 4 -33 15 -56 44 -84 21 -129 -91 -180 -121 -54
-145 -107 -100 -218 17 -42 38 -55 48 -30 2 7 -2 30 -11 50 -35 83 -16 114
103 172 85 41 112 76 112 145 0 69 -59 160 -76 117z"/>
<path d="M3794 5297 c-3 -8 4 -33 15 -56 44 -84 21 -129 -91 -180 -121 -54
-145 -107 -100 -218 17 -42 38 -55 48 -30 2 7 -2 30 -11 50 -35 83 -16 114
103 172 85 41 112 76 112 145 0 69 -59 160 -76 117z"/>
<path d="M5691 5284 c0 -11 3 -14 6 -6 3 7 2 16 -1 19 -3 4 -6 -2 -5 -13z"/>
<path d="M210 5210 c-44 -44 -13 -130 48 -130 60 0 95 56 68 109 -24 46 -81
56 -116 21z m71 -20 c25 -14 25 -56 -1 -70 -45 -24 -86 44 -42 69 21 13 20 13
43 1z"/>
<path d="M2110 5210 c-44 -44 -13 -130 48 -130 60 0 95 56 68 109 -24 46 -81
56 -116 21z m71 -20 c25 -14 25 -56 -1 -70 -45 -24 -86 44 -42 69 21 13 20 13
43 1z"/>
<path d="M4010 5210 c-44 -44 -13 -130 48 -130 60 0 95 56 68 109 -24 46 -81
56 -116 21z m71 -20 c25 -14 25 -56 -1 -70 -45 -24 -86 44 -42 69 21 13 20 13
43 1z"/>
<path d="M707 5163 c-12 -12 -7 -50 8 -63 35 -29 85 26 53 58 -13 13 -50 16
-61 5z m51 -26 c4 -22 -27 -35 -38 -16 -10 15 7 42 24 36 6 -2 12 -11 14 -20z"/>
<path d="M2607 5163 c-12 -12 -7 -50 8 -63 35 -29 85 26 53 58 -13 13 -50 16
-61 5z m51 -26 c4 -22 -27 -35 -38 -16 -10 15 7 42 24 36 6 -2 12 -11 14 -20z"/>
<path d="M4507 5163 c-12 -12 -7 -50 8 -63 35 -29 85 26 53 58 -13 13 -50 16
-61 5z m51 -26 c4 -22 -27 -35 -38 -16 -10 15 7 42 24 36 6 -2 12 -11 14 -20z"/>
<path d="M5622 5066 c-104 -52 -129 -84 -123 -156 3 -39 35 -110 49 -110 21 0
24 24 7 63 -34 81 -10 123 96 168 39 17 49 26 49 45 0 29 1 29 -78 -10z"/>
<path d="M1330 5055 c0 -21 -5 -25 -30 -25 -23 0 -30 -5 -30 -19 0 -14 8 -21
28 -23 21 -2 28 -9 30 -30 2 -16 9 -28 17 -28 8 0 15 12 17 28 2 21 9 28 31
30 19 2 27 9 27 23 0 15 -7 19 -31 19 -28 0 -31 3 -27 25 4 19 1 25 -13 25
-14 0 -19 -7 -19 -25z"/>
<path d="M3230 5055 c0 -21 -5 -25 -30 -25 -23 0 -30 -5 -30 -19 0 -14 8 -21
28 -23 21 -2 28 -9 30 -30 2 -16 9 -28 17 -28 8 0 15 12 17 28 2 21 9 28 31
30 19 2 27 9 27 23 0 15 -7 19 -31 19 -28 0 -31 3 -27 25 4 19 1 25 -13 25
-14 0 -19 -7 -19 -25z"/>
<path d="M5130 5055 c0 -21 -5 -25 -30 -25 -23 0 -30 -5 -30 -19 0 -14 8 -21
28 -23 21 -2 28 -9 30 -30 2 -16 9 -28 17 -28 8 0 15 12 17 28 2 21 9 28 31
30 19 2 27 9 27 23 0 15 -7 19 -31 19 -28 0 -31 3 -27 25 4 19 1 25 -13 25
-14 0 -19 -7 -19 -25z"/>
<path d="M17 4960 c-15 -10 -17 -31 -17 -215 l0 -203 32 15 c65 33 106 33 184
2 116 -47 191 -34 214 36 33 99 -81 270 -227 341 -61 30 -155 42 -186 24z
m108 -70 c24 -27 13 -68 -22 -76 -34 -9 -57 6 -61 42 -6 49 49 72 83 34z m121
-35 c15 -23 15 -27 0 -50 -10 -15 -26 -25 -41 -25 -15 0 -31 10 -41 25 -15 23
-15 27 0 50 10 15 26 25 41 25 15 0 31 -10 41 -25z m-148 -77 c28 -28 2 -88
-38 -88 -40 0 -66 60 -38 88 7 7 24 12 38 12 14 0 31 -5 38 -12z m123 -40 c22
-42 -22 -90 -66 -70 -33 15 -38 50 -10 77 26 27 60 24 76 -7z"/>
<path d="M1900 4942 c-16 -17 -30 -41 -30 -54 0 -15 -16 -39 -42 -65 -66 -63
-101 -77 -193 -78 -95 -1 -116 -11 -143 -67 -95 -199 66 -552 216 -474 38 20
69 84 78 161 7 71 36 119 97 162 89 63 139 70 233 32 116 -47 191 -34 214 36
15 44 6 84 -33 158 -59 113 -194 207 -308 215 -54 4 -60 2 -89 -26z m125 -52
c24 -27 13 -68 -22 -76 -34 -9 -57 6 -61 42 -6 49 49 72 83 34z m121 -35 c15
-23 15 -27 0 -50 -10 -15 -26 -25 -41 -25 -15 0 -31 10 -41 25 -15 23 -15 27
0 50 10 15 26 25 41 25 15 0 31 -10 41 -25z m-148 -77 c28 -28 2 -88 -38 -88
-40 0 -66 60 -38 88 7 7 24 12 38 12 14 0 31 -5 38 -12z m123 -40 c22 -42 -22
-90 -66 -70 -33 15 -38 50 -10 77 26 27 60 24 76 -7z m-485 -105 c18 -27 22
-29 39 -17 31 23 64 17 77 -12 11 -23 10 -29 -10 -44 -12 -10 -28 -20 -35 -23
-9 -3 -8 -12 5 -39 18 -38 15 -49 -20 -67 -27 -14 -37 -9 -57 29 l-15 30 -36
-18 c-35 -16 -36 -16 -55 7 -26 32 -24 39 16 62 34 20 34 21 20 49 -21 40 -19
55 8 68 30 14 38 11 63 -25z"/>
<path d="M3800 4942 c-16 -17 -30 -41 -30 -54 0 -15 -16 -39 -42 -65 -66 -63
-101 -77 -193 -78 -95 -1 -116 -11 -143 -67 -95 -199 66 -552 216 -474 38 20
69 84 78 161 7 71 36 119 97 162 89 63 139 70 233 32 116 -47 191 -34 214 36
15 44 6 84 -33 158 -59 113 -194 207 -308 215 -54 4 -60 2 -89 -26z m125 -52
c24 -27 13 -68 -22 -76 -34 -9 -57 6 -61 42 -6 49 49 72 83 34z m121 -35 c15
-23 15 -27 0 -50 -10 -15 -26 -25 -41 -25 -15 0 -31 10 -41 25 -15 23 -15 27
0 50 10 15 26 25 41 25 15 0 31 -10 41 -25z m-148 -77 c28 -28 2 -88 -38 -88
-40 0 -66 60 -38 88 7 7 24 12 38 12 14 0 31 -5 38 -12z m123 -40 c22 -42 -22
-90 -66 -70 -33 15 -38 50 -10 77 26 27 60 24 76 -7z m-485 -105 c18 -27 22
-29 39 -17 31 23 64 17 77 -12 11 -23 10 -29 -10 -44 -12 -10 -28 -20 -35 -23
-9 -3 -8 -12 5 -39 18 -38 15 -49 -20 -67 -27 -14 -37 -9 -57 29 l-15 30 -36
-18 c-35 -16 -36 -16 -55 7 -26 32 -24 39 16 62 34 20 34 21 20 49 -21 40 -19
55 8 68 30 14 38 11 63 -25z"/>
<path d="M790 4935 c0 -8 -9 -15 -20 -15 -13 0 -20 -7 -20 -20 0 -13 -7 -20
-20 -20 -17 0 -20 -7 -20 -51 0 -42 3 -52 20 -56 11 -3 20 -14 20 -24 0 -12 7
-19 20 -19 11 0 20 -7 20 -15 0 -8 6 -15 14 -15 7 0 16 -9 19 -20 3 -11 12
-20 21 -20 9 0 16 -8 16 -20 0 -13 7 -20 20 -20 11 0 20 -7 20 -15 0 -8 7 -15
15 -15 8 0 15 -9 15 -20 0 -13 7 -20 20 -20 13 0 20 7 20 20 0 11 7 20 15 20
8 0 15 7 15 15 0 8 9 15 20 15 13 0 20 7 20 19 0 10 9 21 20 24 11 3 20 12 20
21 0 9 7 16 15 16 8 0 15 7 15 15 0 8 9 15 20 15 13 0 20 7 20 19 0 10 9 21
20 24 17 4 20 14 20 56 0 44 -3 51 -20 51 -13 0 -20 7 -20 20 0 13 -7 20 -20
20 -11 0 -20 7 -20 15 0 11 -12 15 -50 15 -38 0 -50 -4 -50 -15 0 -8 -9 -15
-20 -15 -13 0 -20 -7 -20 -20 0 -13 -7 -20 -20 -20 -13 0 -20 7 -20 20 0 13
-7 20 -20 20 -11 0 -20 7 -20 15 0 11 -12 15 -50 15 -38 0 -50 -4 -50 -15z
m107 -35 c3 -11 12 -20 19 -20 8 0 14 -9 14 -20 0 -13 7 -20 20 -20 13 0 20 7
20 20 0 11 6 20 14 20 7 0 16 9 19 21 5 18 12 20 59 17 38 -2 52 -7 50 -16 -1
-8 7 -16 18 -19 17 -5 20 -13 20 -59 0 -41 -4 -54 -15 -54 -7 0 -18 -6 -22
-13 -4 -8 -16 -16 -25 -20 -10 -3 -18 -13 -18 -22 0 -8 -7 -15 -15 -15 -8 0
-15 -9 -15 -20 0 -13 -7 -20 -20 -20 -11 0 -20 -7 -20 -15 0 -8 -9 -15 -20
-15 -15 0 -20 -7 -20 -25 0 -14 -4 -25 -10 -25 -5 0 -10 11 -10 25 0 18 -5 25
-20 25 -11 0 -20 7 -20 15 0 8 -9 15 -20 15 -13 0 -20 7 -20 20 0 11 -6 20
-14 20 -7 0 -16 9 -19 20 -3 11 -12 20 -20 20 -8 0 -17 7 -21 15 -3 8 -12 15
-21 15 -12 0 -15 12 -15 54 0 46 3 54 20 59 11 3 20 9 19 14 -3 20 4 23 52 23
42 0 52 -3 56 -20z"/>
<path d="M2690 4935 c0 -8 -9 -15 -20 -15 -13 0 -20 -7 -20 -20 0 -13 -7 -20
-20 -20 -17 0 -20 -7 -20 -51 0 -42 3 -52 20 -56 11 -3 20 -14 20 -24 0 -12 7
-19 20 -19 11 0 20 -7 20 -15 0 -8 6 -15 14 -15 7 0 16 -9 19 -20 3 -11 12
-20 21 -20 9 0 16 -8 16 -20 0 -13 7 -20 20 -20 11 0 20 -7 20 -15 0 -8 7 -15
15 -15 8 0 15 -9 15 -20 0 -13 7 -20 20 -20 13 0 20 7 20 20 0 11 7 20 15 20
8 0 15 7 15 15 0 8 9 15 20 15 13 0 20 7 20 19 0 10 9 21 20 24 11 3 20 12 20
21 0 9 7 16 15 16 8 0 15 7 15 15 0 8 9 15 20 15 13 0 20 7 20 19 0 10 9 21
20 24 17 4 20 14 20 56 0 44 -3 51 -20 51 -13 0 -20 7 -20 20 0 13 -7 20 -20
20 -11 0 -20 7 -20 15 0 11 -12 15 -50 15 -38 0 -50 -4 -50 -15 0 -8 -9 -15
-20 -15 -13 0 -20 -7 -20 -20 0 -13 -7 -20 -20 -20 -13 0 -20 7 -20 20 0 13
-7 20 -20 20 -11 0 -20 7 -20 15 0 11 -12 15 -50 15 -38 0 -50 -4 -50 -15z
m107 -35 c3 -11 12 -20 19 -20 8 0 14 -9 14 -20 0 -13 7 -20 20 -20 13 0 20 7
20 20 0 11 6 20 14 20 7 0 16 9 19 21 5 18 12 20 59 17 38 -2 52 -7 50 -16 -1
-8 7 -16 18 -19 17 -5 20 -13 20 -59 0 -41 -4 -54 -15 -54 -7 0 -18 -6 -22
-13 -4 -8 -16 -16 -25 -20 -10 -3 -18 -13 -18 -22 0 -8 -7 -15 -15 -15 -8 0
-15 -9 -15 -20 0 -13 -7 -20 -20 -20 -11 0 -20 -7 -20 -15 0 -8 -9 -15 -20
-15 -15 0 -20 -7 -20 -25 0 -14 -4 -25 -10 -25 -5 0 -10 11 -10 25 0 18 -5 25
-20 25 -11 0 -20 7 -20 15 0 8 -9 15 -20 15 -13 0 -20 7 -20 20 0 11 -6 20
-14 20 -7 0 -16 9 -19 20 -3 11 -12 20 -20 20 -8 0 -17 7 -21 15 -3 8 -12 15
-21 15 -12 0 -15 12 -15 54 0 46 3 54 20 59 11 3 20 9 19 14 -3 20 4 23 52 23
42 0 52 -3 56 -20z"/>
<path d="M4590 4935 c0 -8 -9 -15 -20 -15 -13 0 -20 -7 -20 -20 0 -13 -7 -20
-20 -20 -17 0 -20 -7 -20 -51 0 -42 3 -52 20 -56 11 -3 20 -14 20 -24 0 -12 7
-19 20 -19 11 0 20 -7 20 -15 0 -8 6 -15 14 -15 7 0 16 -9 19 -20 3 -11 12
-20 21 -20 9 0 16 -8 16 -20 0 -13 7 -20 20 -20 11 0 20 -7 20 -15 0 -8 7 -15
15 -15 8 0 15 -9 15 -20 0 -13 7 -20 20 -20 13 0 20 7 20 20 0 11 7 20 15 20
8 0 15 7 15 15 0 8 9 15 20 15 13 0 20 7 20 19 0 10 9 21 20 24 11 3 20 12 20
21 0 9 7 16 15 16 8 0 15 7 15 15 0 8 9 15 20 15 13 0 20 7 20 19 0 10 9 21
20 24 17 4 20 14 20 56 0 44 -3 51 -20 51 -13 0 -20 7 -20 20 0 13 -7 20 -20
20 -11 0 -20 7 -20 15 0 11 -12 15 -50 15 -38 0 -50 -4 -50 -15 0 -8 -9 -15
-20 -15 -13 0 -20 -7 -20 -20 0 -13 -7 -20 -20 -20 -13 0 -20 7 -20 20 0 13
-7 20 -20 20 -11 0 -20 7 -20 15 0 11 -12 15 -50 15 -38 0 -50 -4 -50 -15z
m107 -35 c3 -11 12 -20 19 -20 8 0 14 -9 14 -20 0 -13 7 -20 20 -20 13 0 20 7
20 20 0 11 6 20 14 20 7 0 16 9 19 21 5 18 12 20 59 17 38 -2 52 -7 50 -16 -1
-8 7 -16 18 -19 17 -5 20 -13 20 -59 0 -41 -4 -54 -15 -54 -7 0 -18 -6 -22
-13 -4 -8 -16 -16 -25 -20 -10 -3 -18 -13 -18 -22 0 -8 -7 -15 -15 -15 -8 0
-15 -9 -15 -20 0 -13 -7 -20 -20 -20 -11 0 -20 -7 -20 -15 0 -8 -9 -15 -20
-15 -15 0 -20 -7 -20 -25 0 -14 -4 -25 -10 -25 -5 0 -10 11 -10 25 0 18 -5 25
-20 25 -11 0 -20 7 -20 15 0 8 -9 15 -20 15 -13 0 -20 7 -20 20 0 11 -6 20
-14 20 -7 0 -16 9 -19 20 -3 11 -12 20 -20 20 -8 0 -17 7 -21 15 -3 8 -12 15
-21 15 -12 0 -15 12 -15 54 0 46 3 54 20 59 11 3 20 9 19 14 -3 20 4 23 52 23
42 0 52 -3 56 -20z"/>
<path d="M5683 4923 c-7 -12 -13 -30 -13 -40 0 -23 -72 -94 -120 -119 -25 -13
-58 -19 -115 -19 -95 -1 -116 -11 -143 -67 -95 -199 66 -552 216 -474 38 20
69 84 78 161 7 68 21 95 76 145 l38 36 -2 199 c-3 166 -5 196 -15 178z m-247
-290 c18 -27 22 -29 39 -17 31 23 64 17 77 -12 11 -23 10 -29 -10 -44 -12 -10
-28 -20 -35 -23 -9 -3 -8 -12 5 -39 18 -38 15 -49 -20 -67 -27 -14 -37 -9 -57
29 l-15 30 -36 -18 c-35 -16 -36 -16 -55 7 -26 32 -24 39 16 62 34 20 34 21
20 49 -21 40 -19 55 8 68 30 14 38 11 63 -25z"/>
<path d="M490 4910 c0 -13 -7 -20 -20 -20 -11 0 -20 -4 -20 -10 0 -5 9 -10 20
-10 13 0 20 -7 20 -20 0 -11 5 -20 10 -20 6 0 10 7 10 16 0 9 9 18 20 21 11 3
20 9 20 14 0 5 -9 9 -20 9 -13 0 -20 7 -20 20 0 11 -4 20 -10 20 -5 0 -10 -9
-10 -20z"/>
<path d="M2390 4910 c0 -13 -7 -20 -20 -20 -11 0 -20 -4 -20 -10 0 -5 9 -10
20 -10 13 0 20 -7 20 -20 0 -11 5 -20 10 -20 6 0 10 7 10 16 0 9 9 18 20 21
11 3 20 9 20 14 0 5 -9 9 -20 9 -13 0 -20 7 -20 20 0 11 -4 20 -10 20 -5 0
-10 -9 -10 -20z"/>
<path d="M4290 4910 c0 -13 -7 -20 -20 -20 -11 0 -20 -4 -20 -10 0 -5 9 -10
20 -10 13 0 20 -7 20 -20 0 -11 5 -20 10 -20 6 0 10 7 10 16 0 9 9 18 20 21
11 3 20 9 20 14 0 5 -9 9 -20 9 -13 0 -20 7 -20 20 0 11 -4 20 -10 20 -5 0
-10 -9 -10 -20z"/>
<path d="M1315 4666 c-25 -18 -11 -56 20 -56 21 0 35 17 35 40 0 19 -37 30
-55 16z m38 -12 c9 -9 -4 -34 -18 -34 -14 0 -27 25 -18 34 4 3 12 6 18 6 6 0
14 -3 18 -6z"/>
<path d="M3215 4666 c-25 -18 -11 -56 20 -56 21 0 35 17 35 40 0 19 -37 30
-55 16z m38 -12 c9 -9 -4 -34 -18 -34 -14 0 -27 25 -18 34 4 3 12 6 18 6 6 0
14 -3 18 -6z"/>
<path d="M5115 4666 c-25 -18 -11 -56 20 -56 21 0 35 17 35 40 0 19 -37 30
-55 16z m38 -12 c9 -9 -4 -34 -18 -34 -14 0 -27 25 -18 34 4 3 12 6 18 6 6 0
14 -3 18 -6z"/>
<path d="M618 4489 c-26 -15 -23 -65 3 -80 34 -18 69 3 69 40 0 42 -36 62 -72
40z m40 -18 c19 -11 11 -45 -11 -49 -19 -4 -32 20 -23 43 6 17 15 19 34 6z"/>
<path d="M2518 4489 c-26 -15 -23 -65 3 -80 34 -18 69 3 69 40 0 42 -36 62
-72 40z m40 -18 c19 -11 11 -45 -11 -49 -19 -4 -32 20 -23 43 6 17 15 19 34 6z"/>
<path d="M4418 4489 c-26 -15 -23 -65 3 -80 34 -18 69 3 69 40 0 42 -36 62
-72 40z m40 -18 c19 -11 11 -45 -11 -49 -19 -4 -32 20 -23 43 6 17 15 19 34 6z"/>
<path d="M1200 4404 c0 -9 -9 -18 -20 -21 -24 -6 -27 -23 -4 -23 9 0 18 -9 21
-20 3 -11 9 -20 14 -20 5 0 9 9 9 20 0 13 7 20 20 20 11 0 20 5 20 10 0 6 -9
10 -20 10 -13 0 -20 7 -20 20 0 11 -4 20 -10 20 -5 0 -10 -7 -10 -16z"/>
<path d="M3100 4404 c0 -9 -9 -18 -20 -21 -24 -6 -27 -23 -4 -23 9 0 18 -9 21
-20 3 -11 9 -20 14 -20 5 0 9 9 9 20 0 13 7 20 20 20 11 0 20 5 20 10 0 6 -9
10 -20 10 -13 0 -20 7 -20 20 0 11 -4 20 -10 20 -5 0 -10 -7 -10 -16z"/>
<path d="M5000 4404 c0 -9 -9 -18 -20 -21 -24 -6 -27 -23 -4 -23 9 0 18 -9 21
-20 3 -11 9 -20 14 -20 5 0 9 9 9 20 0 13 7 20 20 20 11 0 20 5 20 10 0 6 -9
10 -20 10 -13 0 -20 7 -20 20 0 11 -4 20 -10 20 -5 0 -10 -7 -10 -16z"/>
<path d="M250 4310 c0 -25 -4 -30 -25 -30 -18 0 -25 -5 -25 -20 0 -15 7 -20
25 -20 20 0 25 -5 25 -25 0 -18 5 -25 20 -25 15 0 20 7 20 25 0 21 5 25 30 25
23 0 30 4 30 20 0 16 -7 20 -30 20 -27 0 -30 3 -30 30 0 23 -4 30 -20 30 -16
0 -20 -7 -20 -30z"/>
<path d="M2150 4310 c0 -25 -4 -30 -25 -30 -18 0 -25 -5 -25 -20 0 -15 7 -20
25 -20 20 0 25 -5 25 -25 0 -18 5 -25 20 -25 15 0 20 7 20 25 0 21 5 25 30 25
23 0 30 4 30 20 0 16 -7 20 -30 20 -27 0 -30 3 -30 30 0 23 -4 30 -20 30 -16
0 -20 -7 -20 -30z"/>
<path d="M4050 4310 c0 -25 -4 -30 -25 -30 -18 0 -25 -5 -25 -20 0 -15 7 -20
25 -20 20 0 25 -5 25 -25 0 -18 5 -25 20 -25 15 0 20 7 20 25 0 21 5 25 30 25
23 0 30 4 30 20 0 16 -7 20 -30 20 -27 0 -30 3 -30 30 0 23 -4 30 -20 30 -16
0 -20 -7 -20 -30z"/>
<path d="M793 4278 c-6 -7 -58 -192 -117 -411 -79 -295 -104 -402 -97 -416 7
-13 70 -34 239 -79 238 -64 273 -70 289 -49 6 6 58 191 117 410 79 295 104
402 97 416 -7 13 -70 34 -239 79 -238 64 -273 70 -289 50z m262 -114 c99 -26
184 -51 188 -54 13 -12 -84 -360 -101 -360 -8 0 -80 18 -161 39 -80 22 -165
45 -188 51 -24 6 -43 16 -43 23 0 6 21 90 46 185 38 141 50 172 63 168 9 -3
97 -26 196 -52z m-243 -501 c-2 -27 2 -34 23 -39 17 -4 25 -13 25 -28 0 -31
-7 -35 -40 -26 -26 8 -29 6 -35 -21 -7 -29 -27 -37 -53 -21 -9 6 -10 15 -3 35
9 23 7 26 -20 36 -47 16 -34 62 16 58 24 -2 31 2 33 21 3 19 9 23 30 20 24 -3
27 -7 24 -35z m296 -55 c33 -33 -6 -91 -47 -69 -27 15 -32 35 -15 60 17 23 44
27 62 9z m-101 -74 c12 -19 11 -24 -6 -45 -16 -21 -22 -22 -45 -11 -31 14 -36
55 -8 71 24 15 42 10 59 -15z"/>
<path d="M2693 4278 c-6 -7 -58 -192 -117 -411 -79 -295 -104 -402 -97 -416 7
-13 70 -34 239 -79 238 -64 273 -70 289 -49 6 6 58 191 117 410 79 295 104
402 97 416 -7 13 -70 34 -239 79 -238 64 -273 70 -289 50z m262 -114 c99 -26
184 -51 188 -54 13 -12 -84 -360 -101 -360 -8 0 -80 18 -161 39 -80 22 -165
45 -188 51 -24 6 -43 16 -43 23 0 6 21 90 46 185 38 141 50 172 63 168 9 -3
97 -26 196 -52z m-243 -501 c-2 -27 2 -34 23 -39 17 -4 25 -13 25 -28 0 -31
-7 -35 -40 -26 -26 8 -29 6 -35 -21 -7 -29 -27 -37 -53 -21 -9 6 -10 15 -3 35
9 23 7 26 -20 36 -47 16 -34 62 16 58 24 -2 31 2 33 21 3 19 9 23 30 20 24 -3
27 -7 24 -35z m296 -55 c33 -33 -6 -91 -47 -69 -27 15 -32 35 -15 60 17 23 44
27 62 9z m-101 -74 c12 -19 11 -24 -6 -45 -16 -21 -22 -22 -45 -11 -31 14 -36
55 -8 71 24 15 42 10 59 -15z"/>
<path d="M4593 4278 c-6 -7 -58 -192 -117 -411 -79 -295 -104 -402 -97 -416 7
-13 70 -34 239 -79 238 -64 273 -70 289 -49 6 6 58 191 117 410 79 295 104
402 97 416 -7 13 -70 34 -239 79 -238 64 -273 70 -289 50z m262 -114 c99 -26
184 -51 188 -54 13 -12 -84 -360 -101 -360 -8 0 -80 18 -161 39 -80 22 -165
45 -188 51 -24 6 -43 16 -43 23 0 6 21 90 46 185 38 141 50 172 63 168 9 -3
97 -26 196 -52z m-243 -501 c-2 -27 2 -34 23 -39 17 -4 25 -13 25 -28 0 -31
-7 -35 -40 -26 -26 8 -29 6 -35 -21 -7 -29 -27 -37 -53 -21 -9 6 -10 15 -3 35
9 23 7 26 -20 36 -47 16 -34 62 16 58 24 -2 31 2 33 21 3 19 9 23 30 20 24 -3
27 -7 24 -35z m296 -55 c33 -33 -6 -91 -47 -69 -27 15 -32 35 -15 60 17 23 44
27 62 9z m-101 -74 c12 -19 11 -24 -6 -45 -16 -21 -22 -22 -45 -11 -31 14 -36
55 -8 71 24 15 42 10 59 -15z"/>
<path d="M1462 4077 c-44 -46 -14 -117 48 -117 17 0 39 9 50 20 11 11 20 33
20 50 0 63 -75 93 -118 47z m78 -22 c26 -32 -13 -81 -47 -59 -35 22 -23 74 17
74 10 0 23 -7 30 -15z"/>
<path d="M3362 4077 c-44 -46 -14 -117 48 -117 17 0 39 9 50 20 11 11 20 33
20 50 0 63 -75 93 -118 47z m78 -22 c26 -32 -13 -81 -47 -59 -35 22 -23 74 17
74 10 0 23 -7 30 -15z"/>
<path d="M5262 4077 c-44 -46 -14 -117 48 -117 38 0 70 32 70 70 0 63 -75 93
-118 47z m78 -22 c26 -32 -13 -81 -47 -59 -35 22 -23 74 17 74 10 0 23 -7 30
-15z"/>
<path d="M60 3985 c0 -8 -9 -15 -20 -15 -13 0 -20 -7 -20 -20 0 -11 -4 -20
-10 -20 -6 0 -10 -62 -10 -165 0 -103 4 -165 10 -165 6 0 10 9 10 20 0 11 7
20 15 20 8 0 15 7 15 15 0 8 9 15 20 15 13 0 20 7 20 19 0 10 9 21 20 24 11 3
20 12 20 21 0 9 7 16 15 16 8 0 15 7 15 15 0 8 9 15 20 15 13 0 20 7 20 19 0
10 9 21 20 24 17 4 20 14 20 56 0 44 -3 51 -20 51 -13 0 -20 7 -20 20 0 13 -7
20 -20 20 -11 0 -20 7 -20 15 0 11 -12 15 -50 15 -38 0 -50 -4 -50 -15z"/>
<path d="M1740 3985 c0 -8 -9 -15 -20 -15 -13 0 -20 -7 -20 -20 0 -13 -7 -20
-20 -20 -17 0 -20 -7 -20 -51 0 -42 3 -52 20 -56 11 -3 20 -14 20 -24 0 -12 7
-19 20 -19 11 0 20 -7 20 -15 0 -8 6 -15 14 -15 7 0 16 -9 19 -20 3 -11 12
-20 21 -20 9 0 16 -8 16 -20 0 -13 7 -20 20 -20 11 0 20 -7 20 -15 0 -8 7 -15
15 -15 8 0 15 -9 15 -20 0 -13 7 -20 20 -20 13 0 20 7 20 20 0 11 7 20 15 20
8 0 15 7 15 15 0 8 9 15 20 15 13 0 20 7 20 19 0 10 9 21 20 24 11 3 20 12 20
21 0 9 7 16 15 16 8 0 15 7 15 15 0 8 9 15 20 15 13 0 20 7 20 19 0 10 9 21
20 24 17 4 20 14 20 56 0 44 -3 51 -20 51 -13 0 -20 7 -20 20 0 13 -7 20 -20
20 -11 0 -20 7 -20 15 0 11 -12 15 -50 15 -38 0 -50 -4 -50 -15 0 -8 -9 -15
-20 -15 -13 0 -20 -7 -20 -20 0 -13 -7 -20 -20 -20 -13 0 -20 7 -20 20 0 13
-7 20 -20 20 -11 0 -20 7 -20 15 0 11 -12 15 -50 15 -38 0 -50 -4 -50 -15z"/>
<path d="M3640 3985 c0 -8 -9 -15 -20 -15 -13 0 -20 -7 -20 -20 0 -13 -7 -20
-20 -20 -17 0 -20 -7 -20 -51 0 -42 3 -52 20 -56 11 -3 20 -14 20 -24 0 -12 7
-19 20 -19 11 0 20 -7 20 -15 0 -8 6 -15 14 -15 7 0 16 -9 19 -20 3 -11 12
-20 21 -20 9 0 16 -8 16 -20 0 -13 7 -20 20 -20 11 0 20 -7 20 -15 0 -8 7 -15
15 -15 8 0 15 -9 15 -20 0 -13 7 -20 20 -20 13 0 20 7 20 20 0 11 7 20 15 20
8 0 15 7 15 15 0 8 9 15 20 15 13 0 20 7 20 19 0 10 9 21 20 24 11 3 20 12 20
21 0 9 7 16 15 16 8 0 15 7 15 15 0 8 9 15 20 15 13 0 20 7 20 19 0 10 9 21
20 24 17 4 20 14 20 56 0 44 -3 51 -20 51 -13 0 -20 7 -20 20 0 13 -7 20 -20
20 -11 0 -20 7 -20 15 0 11 -12 15 -50 15 -38 0 -50 -4 -50 -15 0 -8 -9 -15
-20 -15 -13 0 -20 -7 -20 -20 0 -13 -7 -20 -20 -20 -13 0 -20 7 -20 20 0 13
-7 20 -20 20 -11 0 -20 7 -20 15 0 11 -12 15 -50 15 -38 0 -50 -4 -50 -15z"/>
<path d="M5540 3985 c0 -8 -9 -15 -20 -15 -13 0 -20 -7 -20 -20 0 -13 -7 -20
-20 -20 -17 0 -20 -7 -20 -51 0 -42 3 -52 20 -56 11 -3 20 -14 20 -24 0 -12 7
-19 20 -19 11 0 20 -7 20 -15 0 -8 6 -15 14 -15 7 0 16 -9 19 -20 3 -11 12
-20 21 -20 9 0 16 -8 16 -20 0 -13 7 -20 20 -20 11 0 20 -7 20 -15 0 -8 7 -15
15 -15 8 0 15 -9 15 -20 0 -11 5 -20 10 -20 6 0 10 62 10 165 0 103 -4 165
-10 165 -5 0 -10 9 -10 20 0 13 -7 20 -20 20 -11 0 -20 7 -20 15 0 11 -12 15
-50 15 -38 0 -50 -4 -50 -15z"/>
<path d="M432 3968 c-34 -34 6 -90 48 -68 35 19 20 80 -20 80 -9 0 -21 -5 -28
-12z m51 -22 c9 -22 -19 -42 -37 -26 -19 15 -10 40 14 40 10 0 20 -6 23 -14z"/>
<path d="M2332 3968 c-34 -34 6 -90 48 -68 35 19 20 80 -20 80 -9 0 -21 -5
-28 -12z m51 -22 c9 -22 -19 -42 -37 -26 -19 15 -10 40 14 40 10 0 20 -6 23
-14z"/>
<path d="M4232 3968 c-34 -34 6 -90 48 -68 35 19 20 80 -20 80 -9 0 -21 -5
-28 -12z m51 -22 c9 -22 -19 -42 -37 -26 -19 15 -10 40 14 40 10 0 20 -6 23
-14z"/>
<path d="M1400 3685 c0 -8 -7 -18 -15 -21 -8 -4 -15 -10 -15 -15 0 -5 7 -9 15
-9 8 0 15 -7 15 -15 0 -8 5 -15 10 -15 6 0 10 7 10 15 0 8 7 15 15 15 8 0 15
5 15 10 0 6 -7 10 -15 10 -8 0 -15 6 -15 14 0 8 -4 18 -10 21 -5 3 -10 -1 -10
-10z"/>
<path d="M3300 3685 c0 -8 -7 -18 -15 -21 -8 -4 -15 -10 -15 -15 0 -5 7 -9 15
-9 8 0 15 -7 15 -15 0 -8 5 -15 10 -15 6 0 10 7 10 15 0 8 7 15 15 15 8 0 15
5 15 10 0 6 -7 10 -15 10 -8 0 -15 6 -15 14 0 8 -4 18 -10 21 -5 3 -10 -1 -10
-10z"/>
<path d="M5200 3685 c0 -8 -7 -18 -15 -21 -8 -4 -15 -10 -15 -15 0 -5 7 -9 15
-9 8 0 15 -7 15 -15 0 -8 5 -15 10 -15 6 0 10 7 10 15 0 8 7 15 15 15 8 0 15
5 15 10 0 6 -7 10 -15 10 -8 0 -15 6 -15 14 0 8 -4 18 -10 21 -5 3 -10 -1 -10
-10z"/>
<path d="M340 3610 c0 -13 -7 -20 -20 -20 -11 0 -20 -7 -20 -15 0 -8 9 -15 20
-15 13 0 20 -7 20 -20 0 -11 7 -20 15 -20 8 0 15 9 15 20 0 13 7 20 20 20 11
0 20 7 20 15 0 8 -9 15 -20 15 -13 0 -20 7 -20 20 0 11 -7 20 -15 20 -8 0 -15
-9 -15 -20z"/>
<path d="M2240 3610 c0 -13 -7 -20 -20 -20 -11 0 -20 -7 -20 -15 0 -8 9 -15
20 -15 13 0 20 -7 20 -20 0 -11 7 -20 15 -20 8 0 15 9 15 20 0 13 7 20 20 20
11 0 20 7 20 15 0 8 -9 15 -20 15 -13 0 -20 7 -20 20 0 11 -7 20 -15 20 -8 0
-15 -9 -15 -20z"/>
<path d="M4140 3610 c0 -13 -7 -20 -20 -20 -11 0 -20 -7 -20 -15 0 -8 9 -15
20 -15 13 0 20 -7 20 -20 0 -11 7 -20 15 -20 8 0 15 9 15 20 0 13 7 20 20 20
11 0 20 7 20 15 0 8 -9 15 -20 15 -13 0 -20 7 -20 20 0 11 -7 20 -15 20 -8 0
-15 -9 -15 -20z"/>
<path d="M1572 3458 c-7 -7 -12 -24 -12 -38 0 -34 17 -50 52 -50 18 0 33 8 44
25 15 23 15 27 0 50 -18 27 -63 34 -84 13z m63 -38 c0 -18 -6 -26 -21 -28 -26
-4 -40 24 -23 45 18 21 44 11 44 -17z"/>
<path d="M3472 3458 c-7 -7 -12 -24 -12 -38 0 -34 17 -50 52 -50 18 0 33 8 44
25 15 23 15 27 0 50 -18 27 -63 34 -84 13z m63 -38 c0 -18 -6 -26 -21 -28 -26
-4 -40 24 -23 45 18 21 44 11 44 -17z"/>
<path d="M5372 3458 c-7 -7 -12 -24 -12 -38 0 -34 17 -50 52 -50 18 0 33 8 44
25 15 23 15 27 0 50 -18 27 -63 34 -84 13z m63 -38 c0 -18 -6 -26 -21 -28 -26
-4 -40 24 -23 45 18 21 44 11 44 -17z"/>
<path d="M0 3383 c1 -15 7 -39 15 -53 19 -33 19 -81 0 -106 -18 -24 -20 -67
-3 -62 7 3 23 19 36 38 29 44 29 111 -1 164 -28 50 -47 58 -47 19z"/>
<path d="M1894 3397 c-3 -8 4 -33 15 -56 44 -84 21 -129 -91 -180 -121 -54
-145 -107 -100 -218 17 -42 38 -55 48 -30 2 7 -2 30 -11 50 -35 83 -16 114
103 172 85 41 112 76 112 145 0 69 -59 160 -76 117z"/>
<path d="M3794 3397 c-3 -8 4 -33 15 -56 44 -84 21 -129 -91 -180 -121 -54
-145 -107 -100 -218 17 -42 38 -55 48 -30 2 7 -2 30 -11 50 -35 83 -16 114
103 172 85 41 112 76 112 145 0 69 -59 160 -76 117z"/>
<path d="M5691 3384 c0 -11 3 -14 6 -6 3 7 2 16 -1 19 -3 4 -6 -2 -5 -13z"/>
<path d="M210 3310 c-44 -44 -13 -130 48 -130 60 0 95 56 68 109 -24 46 -81
56 -116 21z m71 -20 c25 -14 25 -56 -1 -70 -45 -24 -86 44 -42 69 21 13 20 13
43 1z"/>
<path d="M2110 3310 c-44 -44 -13 -130 48 -130 60 0 95 56 68 109 -24 46 -81
56 -116 21z m71 -20 c25 -14 25 -56 -1 -70 -45 -24 -86 44 -42 69 21 13 20 13
43 1z"/>
<path d="M4010 3310 c-44 -44 -13 -130 48 -130 60 0 95 56 68 109 -24 46 -81
56 -116 21z m71 -20 c25 -14 25 -56 -1 -70 -45 -24 -86 44 -42 69 21 13 20 13
43 1z"/>
<path d="M707 3263 c-12 -12 -7 -50 8 -63 35 -29 85 26 53 58 -13 13 -50 16
-61 5z m51 -26 c4 -22 -27 -35 -38 -16 -10 15 7 42 24 36 6 -2 12 -11 14 -20z"/>
<path d="M2607 3263 c-12 -12 -7 -50 8 -63 35 -29 85 26 53 58 -13 13 -50 16
-61 5z m51 -26 c4 -22 -27 -35 -38 -16 -10 15 7 42 24 36 6 -2 12 -11 14 -20z"/>
<path d="M4507 3263 c-12 -12 -7 -50 8 -63 35 -29 85 26 53 58 -13 13 -50 16
-61 5z m51 -26 c4 -22 -27 -35 -38 -16 -10 15 7 42 24 36 6 -2 12 -11 14 -20z"/>
<path d="M5622 3166 c-104 -52 -129 -84 -123 -156 3 -39 35 -110 49 -110 21 0
24 24 7 63 -34 81 -10 123 96 168 39 17 49 26 49 45 0 29 1 29 -78 -10z"/>
<path d="M1330 3155 c0 -21 -5 -25 -30 -25 -23 0 -30 -5 -30 -19 0 -14 8 -21
28 -23 21 -2 28 -9 30 -30 2 -16 9 -28 17 -28 8 0 15 12 17 28 2 21 9 28 31
30 19 2 27 9 27 23 0 15 -7 19 -31 19 -28 0 -31 3 -27 25 4 19 1 25 -13 25
-14 0 -19 -7 -19 -25z"/>
<path d="M3230 3155 c0 -21 -5 -25 -30 -25 -23 0 -30 -5 -30 -19 0 -14 8 -21
28 -23 21 -2 28 -9 30 -30 2 -16 9 -28 17 -28 8 0 15 12 17 28 2 21 9 28 31
30 19 2 27 9 27 23 0 15 -7 19 -31 19 -28 0 -31 3 -27 25 4 19 1 25 -13 25
-14 0 -19 -7 -19 -25z"/>
<path d="M5130 3155 c0 -21 -5 -25 -30 -25 -23 0 -30 -5 -30 -19 0 -14 8 -21
28 -23 21 -2 28 -9 30 -30 2 -16 9 -28 17 -28 8 0 15 12 17 28 2 21 9 28 31
30 19 2 27 9 27 23 0 15 -7 19 -31 19 -28 0 -31 3 -27 25 4 19 1 25 -13 25
-14 0 -19 -7 -19 -25z"/>
<path d="M17 3060 c-15 -10 -17 -31 -17 -215 l0 -203 32 15 c65 33 106 33 184
2 116 -47 191 -34 214 36 33 99 -81 270 -227 341 -61 30 -155 42 -186 24z
m108 -70 c24 -27 13 -68 -22 -76 -34 -9 -57 6 -61 42 -6 49 49 72 83 34z m121
-35 c15 -23 15 -27 0 -50 -10 -15 -26 -25 -41 -25 -15 0 -31 10 -41 25 -15 23
-15 27 0 50 10 15 26 25 41 25 15 0 31 -10 41 -25z m-148 -77 c28 -28 2 -88
-38 -88 -40 0 -66 60 -38 88 7 7 24 12 38 12 14 0 31 -5 38 -12z m123 -40 c22
-42 -22 -90 -66 -70 -33 15 -38 50 -10 77 26 27 60 24 76 -7z"/>
<path d="M1900 3042 c-16 -17 -30 -41 -30 -54 0 -15 -16 -39 -42 -65 -66 -63
-101 -77 -193 -78 -95 -1 -116 -11 -143 -67 -95 -199 66 -552 216 -474 38 20
69 84 78 161 7 71 36 119 97 162 89 63 139 70 233 32 116 -47 191 -34 214 36
15 44 6 84 -33 158 -59 113 -194 207 -308 215 -54 4 -60 2 -89 -26z m125 -52
c24 -27 13 -68 -22 -76 -34 -9 -57 6 -61 42 -6 49 49 72 83 34z m121 -35 c15
-23 15 -27 0 -50 -10 -15 -26 -25 -41 -25 -15 0 -31 10 -41 25 -15 23 -15 27
0 50 10 15 26 25 41 25 15 0 31 -10 41 -25z m-148 -77 c28 -28 2 -88 -38 -88
-40 0 -66 60 -38 88 7 7 24 12 38 12 14 0 31 -5 38 -12z m123 -40 c22 -42 -22
-90 -66 -70 -33 15 -38 50 -10 77 26 27 60 24 76 -7z m-485 -105 c18 -27 22
-29 39 -17 31 23 64 17 77 -12 11 -23 10 -29 -10 -44 -12 -10 -28 -20 -35 -23
-9 -3 -8 -12 5 -39 18 -38 15 -49 -20 -67 -27 -14 -37 -9 -57 29 l-15 30 -36
-18 c-35 -16 -36 -16 -55 7 -26 32 -24 39 16 62 34 20 34 21 20 49 -21 40 -19
55 8 68 30 14 38 11 63 -25z"/>
<path d="M3800 3042 c-16 -17 -30 -41 -30 -54 0 -15 -16 -39 -42 -65 -66 -63
-101 -77 -193 -78 -95 -1 -116 -11 -143 -67 -95 -199 66 -552 216 -474 38 20
69 84 78 161 7 71 36 119 97 162 89 63 139 70 233 32 116 -47 191 -34 214 36
15 44 6 84 -33 158 -59 113 -194 207 -308 215 -54 4 -60 2 -89 -26z m125 -52
c24 -27 13 -68 -22 -76 -34 -9 -57 6 -61 42 -6 49 49 72 83 34z m121 -35 c15
-23 15 -27 0 -50 -10 -15 -26 -25 -41 -25 -15 0 -31 10 -41 25 -15 23 -15 27
0 50 10 15 26 25 41 25 15 0 31 -10 41 -25z m-148 -77 c28 -28 2 -88 -38 -88
-40 0 -66 60 -38 88 7 7 24 12 38 12 14 0 31 -5 38 -12z m123 -40 c22 -42 -22
-90 -66 -70 -33 15 -38 50 -10 77 26 27 60 24 76 -7z m-485 -105 c18 -27 22
-29 39 -17 31 23 64 17 77 -12 11 -23 10 -29 -10 -44 -12 -10 -28 -20 -35 -23
-9 -3 -8 -12 5 -39 18 -38 15 -49 -20 -67 -27 -14 -37 -9 -57 29 l-15 30 -36
-18 c-35 -16 -36 -16 -55 7 -26 32 -24 39 16 62 34 20 34 21 20 49 -21 40 -19
55 8 68 30 14 38 11 63 -25z"/>
<path d="M790 3035 c0 -8 -9 -15 -20 -15 -13 0 -20 -7 -20 -20 0 -13 -7 -20
-20 -20 -17 0 -20 -7 -20 -51 0 -42 3 -52 20 -56 11 -3 20 -14 20 -24 0 -12 7
-19 20 -19 11 0 20 -7 20 -15 0 -8 6 -15 14 -15 7 0 16 -9 19 -20 3 -11 12
-20 21 -20 9 0 16 -8 16 -20 0 -13 7 -20 20 -20 11 0 20 -7 20 -15 0 -8 7 -15
15 -15 8 0 15 -9 15 -20 0 -13 7 -20 20 -20 13 0 20 7 20 20 0 11 7 20 15 20
8 0 15 7 15 15 0 8 9 15 20 15 13 0 20 7 20 19 0 10 9 21 20 24 11 3 20 12 20
21 0 9 7 16 15 16 8 0 15 7 15 15 0 8 9 15 20 15 13 0 20 7 20 19 0 10 9 21
20 24 17 4 20 14 20 56 0 44 -3 51 -20 51 -13 0 -20 7 -20 20 0 13 -7 20 -20
20 -11 0 -20 7 -20 15 0 11 -12 15 -50 15 -38 0 -50 -4 -50 -15 0 -8 -9 -15
-20 -15 -13 0 -20 -7 -20 -20 0 -13 -7 -20 -20 -20 -13 0 -20 7 -20 20 0 13
-7 20 -20 20 -11 0 -20 7 -20 15 0 11 -12 15 -50 15 -38 0 -50 -4 -50 -15z
m107 -35 c3 -11 12 -20 19 -20 8 0 14 -9 14 -20 0 -13 7 -20 20 -20 13 0 20 7
20 20 0 11 6 20 14 20 7 0 16 9 19 21 5 18 12 20 59 17 38 -2 52 -7 50 -16 -1
-8 7 -16 18 -19 17 -5 20 -13 20 -59 0 -41 -4 -54 -15 -54 -7 0 -18 -6 -22
-13 -4 -8 -16 -16 -25 -20 -10 -3 -18 -13 -18 -22 0 -8 -7 -15 -15 -15 -8 0
-15 -9 -15 -20 0 -13 -7 -20 -20 -20 -11 0 -20 -7 -20 -15 0 -8 -9 -15 -20
-15 -15 0 -20 -7 -20 -25 0 -14 -4 -25 -10 -25 -5 0 -10 11 -10 25 0 18 -5 25
-20 25 -11 0 -20 7 -20 15 0 8 -9 15 -20 15 -13 0 -20 7 -20 20 0 11 -6 20
-14 20 -7 0 -16 9 -19 20 -3 11 -12 20 -20 20 -8 0 -17 7 -21 15 -3 8 -12 15
-21 15 -12 0 -15 12 -15 54 0 46 3 54 20 59 11 3 20 9 19 14 -3 20 4 23 52 23
42 0 52 -3 56 -20z"/>
<path d="M2690 3035 c0 -8 -9 -15 -20 -15 -13 0 -20 -7 -20 -20 0 -13 -7 -20
-20 -20 -17 0 -20 -7 -20 -51 0 -42 3 -52 20 -56 11 -3 20 -14 20 -24 0 -12 7
-19 20 -19 11 0 20 -7 20 -15 0 -8 6 -15 14 -15 7 0 16 -9 19 -20 3 -11 12
-20 21 -20 9 0 16 -8 16 -20 0 -13 7 -20 20 -20 11 0 20 -7 20 -15 0 -8 7 -15
15 -15 8 0 15 -9 15 -20 0 -13 7 -20 20 -20 13 0 20 7 20 20 0 11 7 20 15 20
8 0 15 7 15 15 0 8 9 15 20 15 13 0 20 7 20 19 0 10 9 21 20 24 11 3 20 12 20
21 0 9 7 16 15 16 8 0 15 7 15 15 0 8 9 15 20 15 13 0 20 7 20 19 0 10 9 21
20 24 17 4 20 14 20 56 0 44 -3 51 -20 51 -13 0 -20 7 -20 20 0 13 -7 20 -20
20 -11 0 -20 7 -20 15 0 11 -12 15 -50 15 -38 0 -50 -4 -50 -15 0 -8 -9 -15
-20 -15 -13 0 -20 -7 -20 -20 0 -13 -7 -20 -20 -20 -13 0 -20 7 -20 20 0 13
-7 20 -20 20 -11 0 -20 7 -20 15 0 11 -12 15 -50 15 -38 0 -50 -4 -50 -15z
m107 -35 c3 -11 12 -20 19 -20 8 0 14 -9 14 -20 0 -13 7 -20 20 -20 13 0 20 7
20 20 0 11 6 20 14 20 7 0 16 9 19 21 5 18 12 20 59 17 38 -2 52 -7 50 -16 -1
-8 7 -16 18 -19 17 -5 20 -13 20 -59 0 -41 -4 -54 -15 -54 -7 0 -18 -6 -22
-13 -4 -8 -16 -16 -25 -20 -10 -3 -18 -13 -18 -22 0 -8 -7 -15 -15 -15 -8 0
-15 -9 -15 -20 0 -13 -7 -20 -20 -20 -11 0 -20 -7 -20 -15 0 -8 -9 -15 -20
-15 -15 0 -20 -7 -20 -25 0 -14 -4 -25 -10 -25 -5 0 -10 11 -10 25 0 18 -5 25
-20 25 -11 0 -20 7 -20 15 0 8 -9 15 -20 15 -13 0 -20 7 -20 20 0 11 -6 20
-14 20 -7 0 -16 9 -19 20 -3 11 -12 20 -20 20 -8 0 -17 7 -21 15 -3 8 -12 15
-21 15 -12 0 -15 12 -15 54 0 46 3 54 20 59 11 3 20 9 19 14 -3 20 4 23 52 23
42 0 52 -3 56 -20z"/>
<path d="M4590 3035 c0 -8 -9 -15 -20 -15 -13 0 -20 -7 -20 -20 0 -13 -7 -20
-20 -20 -17 0 -20 -7 -20 -51 0 -42 3 -52 20 -56 11 -3 20 -14 20 -24 0 -12 7
-19 20 -19 11 0 20 -7 20 -15 0 -8 6 -15 14 -15 7 0 16 -9 19 -20 3 -11 12
-20 21 -20 9 0 16 -8 16 -20 0 -13 7 -20 20 -20 11 0 20 -7 20 -15 0 -8 7 -15
15 -15 8 0 15 -9 15 -20 0 -13 7 -20 20 -20 13 0 20 7 20 20 0 11 7 20 15 20
8 0 15 7 15 15 0 8 9 15 20 15 13 0 20 7 20 19 0 10 9 21 20 24 11 3 20 12 20
21 0 9 7 16 15 16 8 0 15 7 15 15 0 8 9 15 20 15 13 0 20 7 20 19 0 10 9 21
20 24 17 4 20 14 20 56 0 44 -3 51 -20 51 -13 0 -20 7 -20 20 0 13 -7 20 -20
20 -11 0 -20 7 -20 15 0 11 -12 15 -50 15 -38 0 -50 -4 -50 -15 0 -8 -9 -15
-20 -15 -13 0 -20 -7 -20 -20 0 -13 -7 -20 -20 -20 -13 0 -20 7 -20 20 0 13
-7 20 -20 20 -11 0 -20 7 -20 15 0 11 -12 15 -50 15 -38 0 -50 -4 -50 -15z
m107 -35 c3 -11 12 -20 19 -20 8 0 14 -9 14 -20 0 -13 7 -20 20 -20 13 0 20 7
20 20 0 11 6 20 14 20 7 0 16 9 19 21 5 18 12 20 59 17 38 -2 52 -7 50 -16 -1
-8 7 -16 18 -19 17 -5 20 -13 20 -59 0 -41 -4 -54 -15 -54 -7 0 -18 -6 -22
-13 -4 -8 -16 -16 -25 -20 -10 -3 -18 -13 -18 -22 0 -8 -7 -15 -15 -15 -8 0
-15 -9 -15 -20 0 -13 -7 -20 -20 -20 -11 0 -20 -7 -20 -15 0 -8 -9 -15 -20
-15 -15 0 -20 -7 -20 -25 0 -14 -4 -25 -10 -25 -5 0 -10 11 -10 25 0 18 -5 25
-20 25 -11 0 -20 7 -20 15 0 8 -9 15 -20 15 -13 0 -20 7 -20 20 0 11 -6 20
-14 20 -7 0 -16 9 -19 20 -3 11 -12 20 -20 20 -8 0 -17 7 -21 15 -3 8 -12 15
-21 15 -12 0 -15 12 -15 54 0 46 3 54 20 59 11 3 20 9 19 14 -3 20 4 23 52 23
42 0 52 -3 56 -20z"/>
<path d="M5683 3023 c-7 -12 -13 -30 -13 -40 0 -23 -72 -94 -120 -119 -25 -13
-58 -19 -115 -19 -95 -1 -116 -11 -143 -67 -95 -199 66 -552 216 -474 38 20
69 84 78 161 7 68 21 95 76 145 l38 36 -2 199 c-3 166 -5 196 -15 178z m-247
-290 c18 -27 22 -29 39 -17 31 23 64 17 77 -12 11 -23 10 -29 -10 -44 -12 -10
-28 -20 -35 -23 -9 -3 -8 -12 5 -39 18 -38 15 -49 -20 -67 -27 -14 -37 -9 -57
29 l-15 30 -36 -18 c-35 -16 -36 -16 -55 7 -26 32 -24 39 16 62 34 20 34 21
20 49 -21 40 -19 55 8 68 30 14 38 11 63 -25z"/>
<path d="M490 3010 c0 -13 -7 -20 -20 -20 -11 0 -20 -4 -20 -10 0 -5 9 -10 20
-10 13 0 20 -7 20 -20 0 -11 5 -20 10 -20 6 0 10 7 10 16 0 9 9 18 20 21 11 3
20 9 20 14 0 5 -9 9 -20 9 -13 0 -20 7 -20 20 0 11 -4 20 -10 20 -5 0 -10 -9
-10 -20z"/>
<path d="M2390 3010 c0 -13 -7 -20 -20 -20 -11 0 -20 -4 -20 -10 0 -5 9 -10
20 -10 13 0 20 -7 20 -20 0 -11 5 -20 10 -20 6 0 10 7 10 16 0 9 9 18 20 21
11 3 20 9 20 14 0 5 -9 9 -20 9 -13 0 -20 7 -20 20 0 11 -4 20 -10 20 -5 0
-10 -9 -10 -20z"/>
<path d="M4290 3010 c0 -13 -7 -20 -20 -20 -11 0 -20 -4 -20 -10 0 -5 9 -10
20 -10 13 0 20 -7 20 -20 0 -11 5 -20 10 -20 6 0 10 7 10 16 0 9 9 18 20 21
11 3 20 9 20 14 0 5 -9 9 -20 9 -13 0 -20 7 -20 20 0 11 -4 20 -10 20 -5 0
-10 -9 -10 -20z"/>
<path d="M1315 2766 c-25 -18 -11 -56 20 -56 21 0 35 17 35 40 0 19 -37 30
-55 16z m38 -12 c9 -9 -4 -34 -18 -34 -14 0 -27 25 -18 34 4 3 12 6 18 6 6 0
14 -3 18 -6z"/>
<path d="M3215 2766 c-25 -18 -11 -56 20 -56 21 0 35 17 35 40 0 19 -37 30
-55 16z m38 -12 c9 -9 -4 -34 -18 -34 -14 0 -27 25 -18 34 4 3 12 6 18 6 6 0
14 -3 18 -6z"/>
<path d="M5115 2766 c-25 -18 -11 -56 20 -56 21 0 35 17 35 40 0 19 -37 30
-55 16z m38 -12 c9 -9 -4 -34 -18 -34 -14 0 -27 25 -18 34 4 3 12 6 18 6 6 0
14 -3 18 -6z"/>
<path d="M618 2589 c-26 -15 -23 -65 3 -80 34 -18 69 3 69 40 0 42 -36 62 -72
40z m40 -18 c19 -11 11 -45 -11 -49 -19 -4 -32 20 -23 43 6 17 15 19 34 6z"/>
<path d="M2518 2589 c-26 -15 -23 -65 3 -80 34 -18 69 3 69 40 0 42 -36 62
-72 40z m40 -18 c19 -11 11 -45 -11 -49 -19 -4 -32 20 -23 43 6 17 15 19 34 6z"/>
<path d="M4418 2589 c-26 -15 -23 -65 3 -80 34 -18 69 3 69 40 0 42 -36 62
-72 40z m40 -18 c19 -11 11 -45 -11 -49 -19 -4 -32 20 -23 43 6 17 15 19 34 6z"/>
<path d="M1200 2504 c0 -9 -9 -18 -20 -21 -24 -6 -27 -23 -4 -23 9 0 18 -9 21
-20 3 -11 9 -20 14 -20 5 0 9 9 9 20 0 13 7 20 20 20 11 0 20 5 20 10 0 6 -9
10 -20 10 -13 0 -20 7 -20 20 0 11 -4 20 -10 20 -5 0 -10 -7 -10 -16z"/>
<path d="M3100 2504 c0 -9 -9 -18 -20 -21 -24 -6 -27 -23 -4 -23 9 0 18 -9 21
-20 3 -11 9 -20 14 -20 5 0 9 9 9 20 0 13 7 20 20 20 11 0 20 5 20 10 0 6 -9
10 -20 10 -13 0 -20 7 -20 20 0 11 -4 20 -10 20 -5 0 -10 -7 -10 -16z"/>
<path d="M5000 2504 c0 -9 -9 -18 -20 -21 -24 -6 -27 -23 -4 -23 9 0 18 -9 21
-20 3 -11 9 -20 14 -20 5 0 9 9 9 20 0 13 7 20 20 20 11 0 20 5 20 10 0 6 -9
10 -20 10 -13 0 -20 7 -20 20 0 11 -4 20 -10 20 -5 0 -10 -7 -10 -16z"/>
<path d="M250 2410 c0 -25 -4 -30 -25 -30 -18 0 -25 -5 -25 -20 0 -15 7 -20
25 -20 20 0 25 -5 25 -25 0 -18 5 -25 20 -25 15 0 20 7 20 25 0 21 5 25 30 25
23 0 30 4 30 20 0 16 -7 20 -30 20 -27 0 -30 3 -30 30 0 23 -4 30 -20 30 -16
0 -20 -7 -20 -30z"/>
<path d="M2150 2410 c0 -25 -4 -30 -25 -30 -18 0 -25 -5 -25 -20 0 -15 7 -20
25 -20 20 0 25 -5 25 -25 0 -18 5 -25 20 -25 15 0 20 7 20 25 0 21 5 25 30 25
23 0 30 4 30 20 0 16 -7 20 -30 20 -27 0 -30 3 -30 30 0 23 -4 30 -20 30 -16
0 -20 -7 -20 -30z"/>
<path d="M4050 2410 c0 -25 -4 -30 -25 -30 -18 0 -25 -5 -25 -20 0 -15 7 -20
25 -20 20 0 25 -5 25 -25 0 -18 5 -25 20 -25 15 0 20 7 20 25 0 21 5 25 30 25
23 0 30 4 30 20 0 16 -7 20 -30 20 -27 0 -30 3 -30 30 0 23 -4 30 -20 30 -16
0 -20 -7 -20 -30z"/>
<path d="M793 2378 c-6 -7 -58 -192 -117 -411 -79 -295 -104 -402 -97 -416 7
-13 70 -34 239 -79 238 -64 273 -70 289 -49 6 6 58 191 117 410 79 295 104
402 97 416 -7 13 -70 34 -239 79 -238 64 -273 70 -289 50z m262 -114 c99 -26
184 -51 188 -54 13 -12 -84 -360 -101 -360 -8 0 -80 18 -161 39 -80 22 -165
45 -188 51 -24 6 -43 16 -43 23 0 6 21 90 46 185 38 141 50 172 63 168 9 -3
97 -26 196 -52z m-243 -501 c-2 -27 2 -34 23 -39 17 -4 25 -13 25 -28 0 -31
-7 -35 -40 -26 -26 8 -29 6 -35 -21 -7 -29 -27 -37 -53 -21 -9 6 -10 15 -3 35
9 23 7 26 -20 36 -47 16 -34 62 16 58 24 -2 31 2 33 21 3 19 9 23 30 20 24 -3
27 -7 24 -35z m296 -55 c33 -33 -6 -91 -47 -69 -27 15 -32 35 -15 60 17 23 44
27 62 9z m-101 -74 c12 -19 11 -24 -6 -45 -16 -21 -22 -22 -45 -11 -31 14 -36
55 -8 71 24 15 42 10 59 -15z"/>
<path d="M2693 2378 c-6 -7 -58 -192 -117 -411 -79 -295 -104 -402 -97 -416 7
-13 70 -34 239 -79 238 -64 273 -70 289 -49 6 6 58 191 117 410 79 295 104
402 97 416 -7 13 -70 34 -239 79 -238 64 -273 70 -289 50z m262 -114 c99 -26
184 -51 188 -54 13 -12 -84 -360 -101 -360 -8 0 -80 18 -161 39 -80 22 -165
45 -188 51 -24 6 -43 16 -43 23 0 6 21 90 46 185 38 141 50 172 63 168 9 -3
97 -26 196 -52z m-243 -501 c-2 -27 2 -34 23 -39 17 -4 25 -13 25 -28 0 -31
-7 -35 -40 -26 -26 8 -29 6 -35 -21 -7 -29 -27 -37 -53 -21 -9 6 -10 15 -3 35
9 23 7 26 -20 36 -47 16 -34 62 16 58 24 -2 31 2 33 21 3 19 9 23 30 20 24 -3
27 -7 24 -35z m296 -55 c33 -33 -6 -91 -47 -69 -27 15 -32 35 -15 60 17 23 44
27 62 9z m-101 -74 c12 -19 11 -24 -6 -45 -16 -21 -22 -22 -45 -11 -31 14 -36
55 -8 71 24 15 42 10 59 -15z"/>
<path d="M4593 2378 c-6 -7 -58 -192 -117 -411 -79 -295 -104 -402 -97 -416 7
-13 70 -34 239 -79 238 -64 273 -70 289 -49 6 6 58 191 117 410 79 295 104
402 97 416 -7 13 -70 34 -239 79 -238 64 -273 70 -289 50z m262 -114 c99 -26
184 -51 188 -54 13 -12 -84 -360 -101 -360 -8 0 -80 18 -161 39 -80 22 -165
45 -188 51 -24 6 -43 16 -43 23 0 6 21 90 46 185 38 141 50 172 63 168 9 -3
97 -26 196 -52z m-243 -501 c-2 -27 2 -34 23 -39 17 -4 25 -13 25 -28 0 -31
-7 -35 -40 -26 -26 8 -29 6 -35 -21 -7 -29 -27 -37 -53 -21 -9 6 -10 15 -3 35
9 23 7 26 -20 36 -47 16 -34 62 16 58 24 -2 31 2 33 21 3 19 9 23 30 20 24 -3
27 -7 24 -35z m296 -55 c33 -33 -6 -91 -47 -69 -27 15 -32 35 -15 60 17 23 44
27 62 9z m-101 -74 c12 -19 11 -24 -6 -45 -16 -21 -22 -22 -45 -11 -31 14 -36
55 -8 71 24 15 42 10 59 -15z"/>
<path d="M1462 2177 c-44 -46 -14 -117 48 -117 17 0 39 9 50 20 11 11 20 33
20 50 0 63 -75 93 -118 47z m78 -22 c26 -32 -13 -81 -47 -59 -35 22 -23 74 17
74 10 0 23 -7 30 -15z"/>
<path d="M3362 2177 c-44 -46 -14 -117 48 -117 17 0 39 9 50 20 11 11 20 33
20 50 0 63 -75 93 -118 47z m78 -22 c26 -32 -13 -81 -47 -59 -35 22 -23 74 17
74 10 0 23 -7 30 -15z"/>
<path d="M5262 2177 c-44 -46 -14 -117 48 -117 38 0 70 32 70 70 0 63 -75 93
-118 47z m78 -22 c26 -32 -13 -81 -47 -59 -35 22 -23 74 17 74 10 0 23 -7 30
-15z"/>
<path d="M60 2085 c0 -8 -9 -15 -20 -15 -13 0 -20 -7 -20 -20 0 -11 -4 -20
-10 -20 -6 0 -10 -62 -10 -165 0 -103 4 -165 10 -165 6 0 10 9 10 20 0 11 7
20 15 20 8 0 15 7 15 15 0 8 9 15 20 15 13 0 20 7 20 19 0 10 9 21 20 24 11 3
20 12 20 21 0 9 7 16 15 16 8 0 15 7 15 15 0 8 9 15 20 15 13 0 20 7 20 19 0
10 9 21 20 24 17 4 20 14 20 56 0 44 -3 51 -20 51 -13 0 -20 7 -20 20 0 13 -7
20 -20 20 -11 0 -20 7 -20 15 0 11 -12 15 -50 15 -38 0 -50 -4 -50 -15z"/>
<path d="M1740 2085 c0 -8 -9 -15 -20 -15 -13 0 -20 -7 -20 -20 0 -13 -7 -20
-20 -20 -17 0 -20 -7 -20 -51 0 -42 3 -52 20 -56 11 -3 20 -14 20 -24 0 -12 7
-19 20 -19 11 0 20 -7 20 -15 0 -8 6 -15 14 -15 7 0 16 -9 19 -20 3 -11 12
-20 21 -20 9 0 16 -8 16 -20 0 -13 7 -20 20 -20 11 0 20 -7 20 -15 0 -8 7 -15
15 -15 8 0 15 -9 15 -20 0 -13 7 -20 20 -20 13 0 20 7 20 20 0 11 7 20 15 20
8 0 15 7 15 15 0 8 9 15 20 15 13 0 20 7 20 19 0 10 9 21 20 24 11 3 20 12 20
21 0 9 7 16 15 16 8 0 15 7 15 15 0 8 9 15 20 15 13 0 20 7 20 19 0 10 9 21
20 24 17 4 20 14 20 56 0 44 -3 51 -20 51 -13 0 -20 7 -20 20 0 13 -7 20 -20
20 -11 0 -20 7 -20 15 0 11 -12 15 -50 15 -38 0 -50 -4 -50 -15 0 -8 -9 -15
-20 -15 -13 0 -20 -7 -20 -20 0 -13 -7 -20 -20 -20 -13 0 -20 7 -20 20 0 13
-7 20 -20 20 -11 0 -20 7 -20 15 0 11 -12 15 -50 15 -38 0 -50 -4 -50 -15z"/>
<path d="M3640 2085 c0 -8 -9 -15 -20 -15 -13 0 -20 -7 -20 -20 0 -13 -7 -20
-20 -20 -17 0 -20 -7 -20 -51 0 -42 3 -52 20 -56 11 -3 20 -14 20 -24 0 -12 7
-19 20 -19 11 0 20 -7 20 -15 0 -8 6 -15 14 -15 7 0 16 -9 19 -20 3 -11 12
-20 21 -20 9 0 16 -8 16 -20 0 -13 7 -20 20 -20 11 0 20 -7 20 -15 0 -8 7 -15
15 -15 8 0 15 -9 15 -20 0 -13 7 -20 20 -20 13 0 20 7 20 20 0 11 7 20 15 20
8 0 15 7 15 15 0 8 9 15 20 15 13 0 20 7 20 19 0 10 9 21 20 24 11 3 20 12 20
21 0 9 7 16 15 16 8 0 15 7 15 15 0 8 9 15 20 15 13 0 20 7 20 19 0 10 9 21
20 24 17 4 20 14 20 56 0 44 -3 51 -20 51 -13 0 -20 7 -20 20 0 13 -7 20 -20
20 -11 0 -20 7 -20 15 0 11 -12 15 -50 15 -38 0 -50 -4 -50 -15 0 -8 -9 -15
-20 -15 -13 0 -20 -7 -20 -20 0 -13 -7 -20 -20 -20 -13 0 -20 7 -20 20 0 13
-7 20 -20 20 -11 0 -20 7 -20 15 0 11 -12 15 -50 15 -38 0 -50 -4 -50 -15z"/>
<path d="M5540 2085 c0 -8 -9 -15 -20 -15 -13 0 -20 -7 -20 -20 0 -13 -7 -20
-20 -20 -17 0 -20 -7 -20 -51 0 -42 3 -52 20 -56 11 -3 20 -14 20 -24 0 -12 7
-19 20 -19 11 0 20 -7 20 -15 0 -8 6 -15 14 -15 7 0 16 -9 19 -20 3 -11 12
-20 21 -20 9 0 16 -8 16 -20 0 -13 7 -20 20 -20 11 0 20 -7 20 -15 0 -8 7 -15
15 -15 8 0 15 -9 15 -20 0 -11 5 -20 10 -20 6 0 10 62 10 165 0 103 -4 165
-10 165 -5 0 -10 9 -10 20 0 13 -7 20 -20 20 -11 0 -20 7 -20 15 0 11 -12 15
-50 15 -38 0 -50 -4 -50 -15z"/>
<path d="M432 2068 c-34 -34 6 -90 48 -68 35 19 20 80 -20 80 -9 0 -21 -5 -28
-12z m51 -22 c9 -22 -19 -42 -37 -26 -19 15 -10 40 14 40 10 0 20 -6 23 -14z"/>
<path d="M2332 2068 c-34 -34 6 -90 48 -68 35 19 20 80 -20 80 -9 0 -21 -5
-28 -12z m51 -22 c9 -22 -19 -42 -37 -26 -19 15 -10 40 14 40 10 0 20 -6 23
-14z"/>
<path d="M4232 2068 c-34 -34 6 -90 48 -68 35 19 20 80 -20 80 -9 0 -21 -5
-28 -12z m51 -22 c9 -22 -19 -42 -37 -26 -19 15 -10 40 14 40 10 0 20 -6 23
-14z"/>
<path d="M1400 1785 c0 -8 -7 -18 -15 -21 -8 -4 -15 -10 -15 -15 0 -5 7 -9 15
-9 8 0 15 -7 15 -15 0 -8 5 -15 10 -15 6 0 10 7 10 15 0 8 7 15 15 15 8 0 15
5 15 10 0 6 -7 10 -15 10 -8 0 -15 6 -15 14 0 8 -4 18 -10 21 -5 3 -10 -1 -10
-10z"/>
<path d="M3300 1785 c0 -8 -7 -18 -15 -21 -8 -4 -15 -10 -15 -15 0 -5 7 -9 15
-9 8 0 15 -7 15 -15 0 -8 5 -15 10 -15 6 0 10 7 10 15 0 8 7 15 15 15 8 0 15
5 15 10 0 6 -7 10 -15 10 -8 0 -15 6 -15 14 0 8 -4 18 -10 21 -5 3 -10 -1 -10
-10z"/>
<path d="M5200 1785 c0 -8 -7 -18 -15 -21 -8 -4 -15 -10 -15 -15 0 -5 7 -9 15
-9 8 0 15 -7 15 -15 0 -8 5 -15 10 -15 6 0 10 7 10 15 0 8 7 15 15 15 8 0 15
5 15 10 0 6 -7 10 -15 10 -8 0 -15 6 -15 14 0 8 -4 18 -10 21 -5 3 -10 -1 -10
-10z"/>
<path d="M340 1710 c0 -13 -7 -20 -20 -20 -11 0 -20 -7 -20 -15 0 -8 9 -15 20
-15 13 0 20 -7 20 -20 0 -11 7 -20 15 -20 8 0 15 9 15 20 0 13 7 20 20 20 11
0 20 7 20 15 0 8 -9 15 -20 15 -13 0 -20 7 -20 20 0 11 -7 20 -15 20 -8 0 -15
-9 -15 -20z"/>
<path d="M2240 1710 c0 -13 -7 -20 -20 -20 -11 0 -20 -7 -20 -15 0 -8 9 -15
20 -15 13 0 20 -7 20 -20 0 -11 7 -20 15 -20 8 0 15 9 15 20 0 13 7 20 20 20
11 0 20 7 20 15 0 8 -9 15 -20 15 -13 0 -20 7 -20 20 0 11 -7 20 -15 20 -8 0
-15 -9 -15 -20z"/>
<path d="M4140 1710 c0 -13 -7 -20 -20 -20 -11 0 -20 -7 -20 -15 0 -8 9 -15
20 -15 13 0 20 -7 20 -20 0 -11 7 -20 15 -20 8 0 15 9 15 20 0 13 7 20 20 20
11 0 20 7 20 15 0 8 -9 15 -20 15 -13 0 -20 7 -20 20 0 11 -7 20 -15 20 -8 0
-15 -9 -15 -20z"/>
<path d="M1572 1558 c-7 -7 -12 -24 -12 -38 0 -34 17 -50 52 -50 18 0 33 8 44
25 15 23 15 27 0 50 -18 27 -63 34 -84 13z m63 -38 c0 -18 -6 -26 -21 -28 -26
-4 -40 24 -23 45 18 21 44 11 44 -17z"/>
<path d="M3472 1558 c-7 -7 -12 -24 -12 -38 0 -34 17 -50 52 -50 18 0 33 8 44
25 15 23 15 27 0 50 -18 27 -63 34 -84 13z m63 -38 c0 -18 -6 -26 -21 -28 -26
-4 -40 24 -23 45 18 21 44 11 44 -17z"/>
<path d="M5372 1558 c-7 -7 -12 -24 -12 -38 0 -34 17 -50 52 -50 18 0 33 8 44
25 15 23 15 27 0 50 -18 27 -63 34 -84 13z m63 -38 c0 -18 -6 -26 -21 -28 -26
-4 -40 24 -23 45 18 21 44 11 44 -17z"/>
<path d="M0 1483 c1 -15 7 -39 15 -53 19 -33 19 -81 0 -106 -18 -24 -20 -67
-3 -62 7 3 23 19 36 38 29 44 29 111 -1 164 -28 50 -47 58 -47 19z"/>
<path d="M1894 1497 c-3 -8 4 -33 15 -56 44 -84 21 -129 -91 -180 -121 -54
-145 -107 -100 -218 17 -42 38 -55 48 -30 2 7 -2 30 -11 50 -35 83 -16 114
103 172 85 41 112 76 112 145 0 69 -59 160 -76 117z"/>
<path d="M3794 1497 c-3 -8 4 -33 15 -56 44 -84 21 -129 -91 -180 -121 -54
-145 -107 -100 -218 17 -42 38 -55 48 -30 2 7 -2 30 -11 50 -35 83 -16 114
103 172 85 41 112 76 112 145 0 69 -59 160 -76 117z"/>
<path d="M5691 1484 c0 -11 3 -14 6 -6 3 7 2 16 -1 19 -3 4 -6 -2 -5 -13z"/>
<path d="M210 1410 c-44 -44 -13 -130 48 -130 60 0 95 56 68 109 -24 46 -81
56 -116 21z m71 -20 c25 -14 25 -56 -1 -70 -45 -24 -86 44 -42 69 21 13 20 13
43 1z"/>
<path d="M2110 1410 c-44 -44 -13 -130 48 -130 60 0 95 56 68 109 -24 46 -81
56 -116 21z m71 -20 c25 -14 25 -56 -1 -70 -45 -24 -86 44 -42 69 21 13 20 13
43 1z"/>
<path d="M4010 1410 c-44 -44 -13 -130 48 -130 60 0 95 56 68 109 -24 46 -81
56 -116 21z m71 -20 c25 -14 25 -56 -1 -70 -45 -24 -86 44 -42 69 21 13 20 13
43 1z"/>
<path d="M707 1363 c-12 -12 -7 -50 8 -63 35 -29 85 26 53 58 -13 13 -50 16
-61 5z m51 -26 c4 -22 -27 -35 -38 -16 -10 15 7 42 24 36 6 -2 12 -11 14 -20z"/>
<path d="M2607 1363 c-12 -12 -7 -50 8 -63 35 -29 85 26 53 58 -13 13 -50 16
-61 5z m51 -26 c4 -22 -27 -35 -38 -16 -10 15 7 42 24 36 6 -2 12 -11 14 -20z"/>
<path d="M4507 1363 c-12 -12 -7 -50 8 -63 35 -29 85 26 53 58 -13 13 -50 16
-61 5z m51 -26 c4 -22 -27 -35 -38 -16 -10 15 7 42 24 36 6 -2 12 -11 14 -20z"/>
<path d="M5622 1266 c-104 -52 -129 -84 -123 -156 3 -39 35 -110 49 -110 21 0
24 24 7 63 -34 81 -10 123 96 168 39 17 49 26 49 45 0 29 1 29 -78 -10z"/>
<path d="M1330 1255 c0 -21 -5 -25 -30 -25 -23 0 -30 -5 -30 -19 0 -14 8 -21
28 -23 21 -2 28 -9 30 -30 2 -16 9 -28 17 -28 8 0 15 12 17 28 2 21 9 28 31
30 19 2 27 9 27 23 0 15 -7 19 -31 19 -28 0 -31 3 -27 25 4 19 1 25 -13 25
-14 0 -19 -7 -19 -25z"/>
<path d="M3230 1255 c0 -21 -5 -25 -30 -25 -23 0 -30 -5 -30 -19 0 -14 8 -21
28 -23 21 -2 28 -9 30 -30 2 -16 9 -28 17 -28 8 0 15 12 17 28 2 21 9 28 31
30 19 2 27 9 27 23 0 15 -7 19 -31 19 -28 0 -31 3 -27 25 4 19 1 25 -13 25
-14 0 -19 -7 -19 -25z"/>
<path d="M5130 1255 c0 -21 -5 -25 -30 -25 -23 0 -30 -5 -30 -19 0 -14 8 -21
28 -23 21 -2 28 -9 30 -30 2 -16 9 -28 17 -28 8 0 15 12 17 28 2 21 9 28 31
30 19 2 27 9 27 23 0 15 -7 19 -31 19 -28 0 -31 3 -27 25 4 19 1 25 -13 25
-14 0 -19 -7 -19 -25z"/>
<path d="M17 1160 c-15 -10 -17 -31 -17 -215 l0 -203 32 15 c65 33 106 33 184
2 116 -47 191 -34 214 36 33 99 -81 270 -227 341 -61 30 -155 42 -186 24z
m108 -70 c24 -27 13 -68 -22 -76 -34 -9 -57 6 -61 42 -6 49 49 72 83 34z m121
-35 c15 -23 15 -27 0 -50 -10 -15 -26 -25 -41 -25 -15 0 -31 10 -41 25 -15 23
-15 27 0 50 10 15 26 25 41 25 15 0 31 -10 41 -25z m-148 -77 c28 -28 2 -88
-38 -88 -40 0 -66 60 -38 88 15 15 61 15 76 0z m123 -40 c22 -42 -22 -90 -66
-70 -33 15 -38 50 -10 77 26 27 60 24 76 -7z"/>
<path d="M1900 1142 c-16 -17 -30 -41 -30 -54 0 -15 -16 -39 -42 -65 -66 -63
-101 -77 -193 -78 -95 -1 -116 -11 -143 -67 -95 -199 66 -552 216 -474 38 20
69 84 78 161 7 71 36 119 97 162 89 63 139 70 233 32 116 -47 191 -34 214 36
15 44 6 84 -33 158 -59 113 -194 207 -308 215 -54 4 -60 2 -89 -26z m125 -52
c24 -27 13 -68 -22 -76 -34 -9 -57 6 -61 42 -6 49 49 72 83 34z m121 -35 c15
-23 15 -27 0 -50 -10 -15 -26 -25 -41 -25 -15 0 -31 10 -41 25 -15 23 -15 27
0 50 10 15 26 25 41 25 15 0 31 -10 41 -25z m-148 -77 c28 -28 2 -88 -38 -88
-40 0 -66 60 -38 88 15 15 61 15 76 0z m123 -40 c22 -42 -22 -90 -66 -70 -33
15 -38 50 -10 77 26 27 60 24 76 -7z m-485 -105 c18 -27 22 -29 39 -17 31 23
64 17 77 -12 11 -23 10 -29 -10 -44 -12 -10 -28 -20 -35 -23 -9 -3 -8 -12 5
-39 18 -38 15 -49 -20 -67 -27 -14 -37 -9 -57 29 l-15 30 -36 -18 c-35 -16
-36 -16 -55 7 -26 32 -24 39 16 62 34 20 34 21 20 49 -21 40 -19 55 8 68 30
14 38 11 63 -25z"/>
<path d="M3800 1142 c-16 -17 -30 -41 -30 -54 0 -15 -16 -39 -42 -65 -66 -63
-101 -77 -193 -78 -95 -1 -116 -11 -143 -67 -95 -199 66 -552 216 -474 38 20
69 84 78 161 7 71 36 119 97 162 89 63 139 70 233 32 116 -47 191 -34 214 36
15 44 6 84 -33 158 -59 113 -194 207 -308 215 -54 4 -60 2 -89 -26z m125 -52
c24 -27 13 -68 -22 -76 -34 -9 -57 6 -61 42 -6 49 49 72 83 34z m121 -35 c15
-23 15 -27 0 -50 -10 -15 -26 -25 -41 -25 -15 0 -31 10 -41 25 -15 23 -15 27
0 50 10 15 26 25 41 25 15 0 31 -10 41 -25z m-148 -77 c28 -28 2 -88 -38 -88
-40 0 -66 60 -38 88 15 15 61 15 76 0z m123 -40 c22 -42 -22 -90 -66 -70 -33
15 -38 50 -10 77 26 27 60 24 76 -7z m-485 -105 c18 -27 22 -29 39 -17 31 23
64 17 77 -12 11 -23 10 -29 -10 -44 -12 -10 -28 -20 -35 -23 -9 -3 -8 -12 5
-39 18 -38 15 -49 -20 -67 -27 -14 -37 -9 -57 29 l-15 30 -36 -18 c-35 -16
-36 -16 -55 7 -26 32 -24 39 16 62 34 20 34 21 20 49 -21 40 -19 55 8 68 30
14 38 11 63 -25z"/>
<path d="M790 1135 c0 -8 -9 -15 -20 -15 -13 0 -20 -7 -20 -20 0 -13 -7 -20
-20 -20 -17 0 -20 -7 -20 -51 0 -42 3 -52 20 -56 11 -3 20 -14 20 -24 0 -12 7
-19 20 -19 11 0 20 -7 20 -15 0 -8 6 -15 14 -15 7 0 16 -9 19 -20 3 -11 12
-20 21 -20 9 0 16 -8 16 -20 0 -13 7 -20 20 -20 11 0 20 -7 20 -15 0 -8 7 -15
15 -15 8 0 15 -9 15 -20 0 -13 7 -20 20 -20 13 0 20 7 20 20 0 11 7 20 15 20
8 0 15 7 15 15 0 8 9 15 20 15 13 0 20 7 20 19 0 10 9 21 20 24 11 3 20 12 20
21 0 9 7 16 15 16 8 0 15 7 15 15 0 8 9 15 20 15 13 0 20 7 20 19 0 10 9 21
20 24 17 4 20 14 20 56 0 44 -3 51 -20 51 -13 0 -20 7 -20 20 0 13 -7 20 -20
20 -11 0 -20 7 -20 15 0 11 -12 15 -50 15 -38 0 -50 -4 -50 -15 0 -8 -9 -15
-20 -15 -13 0 -20 -7 -20 -20 0 -13 -7 -20 -20 -20 -13 0 -20 7 -20 20 0 13
-7 20 -20 20 -11 0 -20 7 -20 15 0 11 -12 15 -50 15 -38 0 -50 -4 -50 -15z
m107 -35 c3 -11 12 -20 19 -20 8 0 14 -9 14 -20 0 -13 7 -20 20 -20 13 0 20 7
20 20 0 11 6 20 14 20 7 0 16 9 19 21 5 18 12 20 59 17 38 -2 52 -7 50 -16 -1
-8 7 -16 18 -19 17 -5 20 -13 20 -59 0 -41 -4 -54 -15 -54 -7 0 -18 -6 -22
-13 -4 -8 -16 -16 -25 -20 -10 -3 -18 -13 -18 -22 0 -8 -7 -15 -15 -15 -8 0
-15 -9 -15 -20 0 -13 -7 -20 -20 -20 -11 0 -20 -7 -20 -15 0 -8 -9 -15 -20
-15 -15 0 -20 -7 -20 -25 0 -14 -4 -25 -10 -25 -5 0 -10 11 -10 25 0 18 -5 25
-20 25 -11 0 -20 7 -20 15 0 8 -9 15 -20 15 -13 0 -20 7 -20 20 0 11 -6 20
-14 20 -7 0 -16 9 -19 20 -3 11 -12 20 -20 20 -8 0 -17 7 -21 15 -3 8 -12 15
-21 15 -12 0 -15 12 -15 54 0 46 3 54 20 59 11 3 20 9 19 14 -3 20 4 23 52 23
42 0 52 -3 56 -20z"/>
<path d="M2690 1135 c0 -8 -9 -15 -20 -15 -13 0 -20 -7 -20 -20 0 -13 -7 -20
-20 -20 -17 0 -20 -7 -20 -51 0 -42 3 -52 20 -56 11 -3 20 -14 20 -24 0 -12 7
-19 20 -19 11 0 20 -7 20 -15 0 -8 6 -15 14 -15 7 0 16 -9 19 -20 3 -11 12
-20 21 -20 9 0 16 -8 16 -20 0 -13 7 -20 20 -20 11 0 20 -7 20 -15 0 -8 7 -15
15 -15 8 0 15 -9 15 -20 0 -13 7 -20 20 -20 13 0 20 7 20 20 0 11 7 20 15 20
8 0 15 7 15 15 0 8 9 15 20 15 13 0 20 7 20 19 0 10 9 21 20 24 11 3 20 12 20
21 0 9 7 16 15 16 8 0 15 7 15 15 0 8 9 15 20 15 13 0 20 7 20 19 0 10 9 21
20 24 17 4 20 14 20 56 0 44 -3 51 -20 51 -13 0 -20 7 -20 20 0 13 -7 20 -20
20 -11 0 -20 7 -20 15 0 11 -12 15 -50 15 -38 0 -50 -4 -50 -15 0 -8 -9 -15
-20 -15 -13 0 -20 -7 -20 -20 0 -13 -7 -20 -20 -20 -13 0 -20 7 -20 20 0 13
-7 20 -20 20 -11 0 -20 7 -20 15 0 11 -12 15 -50 15 -38 0 -50 -4 -50 -15z
m107 -35 c3 -11 12 -20 19 -20 8 0 14 -9 14 -20 0 -13 7 -20 20 -20 13 0 20 7
20 20 0 11 6 20 14 20 7 0 16 9 19 21 5 18 12 20 59 17 38 -2 52 -7 50 -16 -1
-8 7 -16 18 -19 17 -5 20 -13 20 -59 0 -41 -4 -54 -15 -54 -7 0 -18 -6 -22
-13 -4 -8 -16 -16 -25 -20 -10 -3 -18 -13 -18 -22 0 -8 -7 -15 -15 -15 -8 0
-15 -9 -15 -20 0 -13 -7 -20 -20 -20 -11 0 -20 -7 -20 -15 0 -8 -9 -15 -20
-15 -15 0 -20 -7 -20 -25 0 -14 -4 -25 -10 -25 -5 0 -10 11 -10 25 0 18 -5 25
-20 25 -11 0 -20 7 -20 15 0 8 -9 15 -20 15 -13 0 -20 7 -20 20 0 11 -6 20
-14 20 -7 0 -16 9 -19 20 -3 11 -12 20 -20 20 -8 0 -17 7 -21 15 -3 8 -12 15
-21 15 -12 0 -15 12 -15 54 0 46 3 54 20 59 11 3 20 9 19 14 -3 20 4 23 52 23
42 0 52 -3 56 -20z"/>
<path d="M4590 1135 c0 -8 -9 -15 -20 -15 -13 0 -20 -7 -20 -20 0 -13 -7 -20
-20 -20 -17 0 -20 -7 -20 -51 0 -42 3 -52 20 -56 11 -3 20 -14 20 -24 0 -12 7
-19 20 -19 11 0 20 -7 20 -15 0 -8 6 -15 14 -15 7 0 16 -9 19 -20 3 -11 12
-20 21 -20 9 0 16 -8 16 -20 0 -13 7 -20 20 -20 11 0 20 -7 20 -15 0 -8 7 -15
15 -15 8 0 15 -9 15 -20 0 -13 7 -20 20 -20 13 0 20 7 20 20 0 11 7 20 15 20
8 0 15 7 15 15 0 8 9 15 20 15 13 0 20 7 20 19 0 10 9 21 20 24 11 3 20 12 20
21 0 9 7 16 15 16 8 0 15 7 15 15 0 8 9 15 20 15 13 0 20 7 20 19 0 10 9 21
20 24 17 4 20 14 20 56 0 44 -3 51 -20 51 -13 0 -20 7 -20 20 0 13 -7 20 -20
20 -11 0 -20 7 -20 15 0 11 -12 15 -50 15 -38 0 -50 -4 -50 -15 0 -8 -9 -15
-20 -15 -13 0 -20 -7 -20 -20 0 -13 -7 -20 -20 -20 -13 0 -20 7 -20 20 0 13
-7 20 -20 20 -11 0 -20 7 -20 15 0 11 -12 15 -50 15 -38 0 -50 -4 -50 -15z
m107 -35 c3 -11 12 -20 19 -20 8 0 14 -9 14 -20 0 -13 7 -20 20 -20 13 0 20 7
20 20 0 11 6 20 14 20 7 0 16 9 19 21 5 18 12 20 59 17 38 -2 52 -7 50 -16 -1
-8 7 -16 18 -19 17 -5 20 -13 20 -59 0 -41 -4 -54 -15 -54 -7 0 -18 -6 -22
-13 -4 -8 -16 -16 -25 -20 -10 -3 -18 -13 -18 -22 0 -8 -7 -15 -15 -15 -8 0
-15 -9 -15 -20 0 -13 -7 -20 -20 -20 -11 0 -20 -7 -20 -15 0 -8 -9 -15 -20
-15 -15 0 -20 -7 -20 -25 0 -14 -4 -25 -10 -25 -5 0 -10 11 -10 25 0 18 -5 25
-20 25 -11 0 -20 7 -20 15 0 8 -9 15 -20 15 -13 0 -20 7 -20 20 0 11 -6 20
-14 20 -7 0 -16 9 -19 20 -3 11 -12 20 -20 20 -8 0 -17 7 -21 15 -3 8 -12 15
-21 15 -12 0 -15 12 -15 54 0 46 3 54 20 59 11 3 20 9 19 14 -3 20 4 23 52 23
42 0 52 -3 56 -20z"/>
<path d="M5683 1123 c-7 -12 -13 -30 -13 -40 0 -23 -72 -94 -120 -119 -25 -13
-58 -19 -115 -19 -95 -1 -116 -11 -143 -67 -95 -199 66 -552 216 -474 38 20
69 84 78 161 7 68 21 95 76 145 l38 36 -2 199 c-3 166 -5 196 -15 178z m-247
-290 c18 -27 22 -29 39 -17 31 23 64 17 77 -12 11 -23 10 -29 -10 -44 -12 -10
-28 -20 -35 -23 -9 -3 -8 -12 5 -39 18 -38 15 -49 -20 -67 -27 -14 -37 -9 -57
29 l-15 30 -36 -18 c-35 -16 -36 -16 -55 7 -26 32 -24 39 16 62 34 20 34 21
20 49 -21 40 -19 55 8 68 30 14 38 11 63 -25z"/>
<path d="M490 1110 c0 -13 -7 -20 -20 -20 -11 0 -20 -4 -20 -10 0 -5 9 -10 20
-10 13 0 20 -7 20 -20 0 -11 5 -20 10 -20 6 0 10 7 10 16 0 9 9 18 20 21 11 3
20 9 20 14 0 5 -9 9 -20 9 -13 0 -20 7 -20 20 0 11 -4 20 -10 20 -5 0 -10 -9
-10 -20z"/>
<path d="M2390 1110 c0 -13 -7 -20 -20 -20 -11 0 -20 -4 -20 -10 0 -5 9 -10
20 -10 13 0 20 -7 20 -20 0 -11 5 -20 10 -20 6 0 10 7 10 16 0 9 9 18 20 21
11 3 20 9 20 14 0 5 -9 9 -20 9 -13 0 -20 7 -20 20 0 11 -4 20 -10 20 -5 0
-10 -9 -10 -20z"/>
<path d="M4290 1110 c0 -13 -7 -20 -20 -20 -11 0 -20 -4 -20 -10 0 -5 9 -10
20 -10 13 0 20 -7 20 -20 0 -11 5 -20 10 -20 6 0 10 7 10 16 0 9 9 18 20 21
11 3 20 9 20 14 0 5 -9 9 -20 9 -13 0 -20 7 -20 20 0 11 -4 20 -10 20 -5 0
-10 -9 -10 -20z"/>
<path d="M1315 866 c-25 -18 -11 -56 20 -56 21 0 35 17 35 40 0 19 -37 30 -55
16z m38 -12 c9 -9 -4 -34 -18 -34 -14 0 -27 25 -18 34 4 3 12 6 18 6 6 0 14
-3 18 -6z"/>
<path d="M3215 866 c-25 -18 -11 -56 20 -56 21 0 35 17 35 40 0 19 -37 30 -55
16z m38 -12 c9 -9 -4 -34 -18 -34 -14 0 -27 25 -18 34 4 3 12 6 18 6 6 0 14
-3 18 -6z"/>
<path d="M5115 866 c-25 -18 -11 -56 20 -56 21 0 35 17 35 40 0 19 -37 30 -55
16z m38 -12 c9 -9 -4 -34 -18 -34 -14 0 -27 25 -18 34 4 3 12 6 18 6 6 0 14
-3 18 -6z"/>
<path d="M618 689 c-26 -15 -23 -65 3 -80 34 -18 69 3 69 40 0 42 -36 62 -72
40z m40 -18 c19 -11 11 -45 -11 -49 -19 -4 -32 20 -23 43 6 17 15 19 34 6z"/>
<path d="M2518 689 c-26 -15 -23 -65 3 -80 34 -18 69 3 69 40 0 42 -36 62 -72
40z m40 -18 c19 -11 11 -45 -11 -49 -19 -4 -32 20 -23 43 6 17 15 19 34 6z"/>
<path d="M4418 689 c-26 -15 -23 -65 3 -80 34 -18 69 3 69 40 0 42 -36 62 -72
40z m40 -18 c19 -11 11 -45 -11 -49 -19 -4 -32 20 -23 43 6 17 15 19 34 6z"/>
<path d="M1200 604 c0 -9 -9 -18 -20 -21 -24 -6 -27 -23 -4 -23 9 0 18 -9 21
-20 3 -11 9 -20 14 -20 5 0 9 9 9 20 0 13 7 20 20 20 11 0 20 5 20 10 0 6 -9
10 -20 10 -13 0 -20 7 -20 20 0 11 -4 20 -10 20 -5 0 -10 -7 -10 -16z"/>
<path d="M3100 604 c0 -9 -9 -18 -20 -21 -24 -6 -27 -23 -4 -23 9 0 18 -9 21
-20 3 -11 9 -20 14 -20 5 0 9 9 9 20 0 13 7 20 20 20 11 0 20 5 20 10 0 6 -9
10 -20 10 -13 0 -20 7 -20 20 0 11 -4 20 -10 20 -5 0 -10 -7 -10 -16z"/>
<path d="M5000 604 c0 -9 -9 -18 -20 -21 -24 -6 -27 -23 -4 -23 9 0 18 -9 21
-20 3 -11 9 -20 14 -20 5 0 9 9 9 20 0 13 7 20 20 20 11 0 20 5 20 10 0 6 -9
10 -20 10 -13 0 -20 7 -20 20 0 11 -4 20 -10 20 -5 0 -10 -7 -10 -16z"/>
<path d="M250 510 c0 -25 -4 -30 -25 -30 -18 0 -25 -5 -25 -20 0 -15 7 -20 25
-20 20 0 25 -5 25 -25 0 -18 5 -25 20 -25 15 0 20 7 20 25 0 21 5 25 30 25 23
0 30 4 30 20 0 16 -7 20 -30 20 -27 0 -30 3 -30 30 0 23 -4 30 -20 30 -16 0
-20 -7 -20 -30z"/>
<path d="M2150 510 c0 -25 -4 -30 -25 -30 -18 0 -25 -5 -25 -20 0 -15 7 -20
25 -20 20 0 25 -5 25 -25 0 -18 5 -25 20 -25 15 0 20 7 20 25 0 21 5 25 30 25
23 0 30 4 30 20 0 16 -7 20 -30 20 -27 0 -30 3 -30 30 0 23 -4 30 -20 30 -16
0 -20 -7 -20 -30z"/>
<path d="M4050 510 c0 -25 -4 -30 -25 -30 -18 0 -25 -5 -25 -20 0 -15 7 -20
25 -20 20 0 25 -5 25 -25 0 -18 5 -25 20 -25 15 0 20 7 20 25 0 21 5 25 30 25
23 0 30 4 30 20 0 16 -7 20 -30 20 -27 0 -30 3 -30 30 0 23 -4 30 -20 30 -16
0 -20 -7 -20 -30z"/>
<path d="M793 478 c-11 -14 -135 -469 -129 -475 2 -2 61 -2 132 -1 l129 3 -77
19 c-43 11 -83 23 -90 27 -9 6 0 51 36 186 26 98 48 179 50 180 4 4 394 -102
401 -109 5 -5 -40 -190 -71 -291 -5 -16 -1 -18 32 -15 l37 3 44 160 c31 115
40 166 34 181 -7 17 -49 31 -238 82 -239 64 -274 70 -290 50z"/>
<path d="M2693 478 c-11 -14 -135 -469 -129 -475 2 -2 61 -2 132 -1 l129 3
-77 19 c-43 11 -83 23 -90 27 -9 6 0 51 36 186 26 98 48 179 50 180 4 4 394
-102 401 -109 5 -5 -40 -190 -71 -291 -5 -16 -1 -18 32 -15 l37 3 44 160 c31
115 40 166 34 181 -7 17 -49 31 -238 82 -239 64 -274 70 -290 50z"/>
<path d="M4593 478 c-11 -14 -135 -469 -129 -475 2 -2 61 -2 132 -1 l129 3
-77 19 c-43 11 -83 23 -90 27 -9 6 0 51 36 186 26 98 48 179 50 180 4 4 394
-102 401 -109 5 -5 -40 -190 -71 -291 -5 -16 -1 -18 32 -15 l37 3 44 160 c31
115 40 166 34 181 -7 17 -49 31 -238 82 -239 64 -274 70 -290 50z"/>
<path d="M1462 277 c-44 -46 -14 -117 48 -117 38 0 70 32 70 70 0 63 -75 93
-118 47z m78 -22 c15 -18 10 -45 -12 -59 -35 -22 -74 27 -48 59 16 19 44 19
60 0z"/>
<path d="M3362 277 c-44 -46 -14 -117 48 -117 38 0 70 32 70 70 0 63 -75 93
-118 47z m78 -22 c15 -18 10 -45 -12 -59 -35 -22 -74 27 -48 59 16 19 44 19
60 0z"/>
<path d="M5262 277 c-44 -46 -14 -117 48 -117 38 0 70 32 70 70 0 63 -75 93
-118 47z m78 -22 c15 -18 10 -45 -12 -59 -35 -22 -74 27 -48 59 16 19 44 19
60 0z"/>
<path d="M60 185 c0 -8 -9 -15 -20 -15 -13 0 -20 -7 -20 -20 0 -11 -4 -20 -10
-20 -6 0 -10 -28 -10 -65 l0 -65 100 0 c55 0 100 4 100 9 0 5 9 11 20 14 17 4
20 14 20 56 0 44 -3 51 -20 51 -13 0 -20 7 -20 20 0 13 -7 20 -20 20 -11 0
-20 7 -20 15 0 11 -12 15 -50 15 -38 0 -50 -4 -50 -15z"/>
<path d="M1740 185 c0 -8 -9 -15 -20 -15 -13 0 -20 -7 -20 -20 0 -13 -7 -20
-20 -20 -17 0 -20 -7 -20 -51 0 -42 3 -52 20 -56 11 -3 20 -9 20 -14 0 -5 90
-9 200 -9 110 0 200 4 200 9 0 5 9 11 20 14 17 4 20 14 20 56 0 44 -3 51 -20
51 -13 0 -20 7 -20 20 0 13 -7 20 -20 20 -11 0 -20 7 -20 15 0 11 -12 15 -50
15 -38 0 -50 -4 -50 -15 0 -8 -9 -15 -20 -15 -13 0 -20 -7 -20 -20 0 -13 -7
-20 -20 -20 -13 0 -20 7 -20 20 0 13 -7 20 -20 20 -11 0 -20 7 -20 15 0 11
-12 15 -50 15 -38 0 -50 -4 -50 -15z"/>
<path d="M3640 185 c0 -8 -9 -15 -20 -15 -13 0 -20 -7 -20 -20 0 -13 -7 -20
-20 -20 -17 0 -20 -7 -20 -51 0 -42 3 -52 20 -56 11 -3 20 -9 20 -14 0 -5 90
-9 200 -9 110 0 200 4 200 9 0 5 9 11 20 14 17 4 20 14 20 56 0 44 -3 51 -20
51 -13 0 -20 7 -20 20 0 13 -7 20 -20 20 -11 0 -20 7 -20 15 0 11 -12 15 -50
15 -38 0 -50 -4 -50 -15 0 -8 -9 -15 -20 -15 -13 0 -20 -7 -20 -20 0 -13 -7
-20 -20 -20 -13 0 -20 7 -20 20 0 13 -7 20 -20 20 -11 0 -20 7 -20 15 0 11
-12 15 -50 15 -38 0 -50 -4 -50 -15z"/>
<path d="M5540 185 c0 -8 -9 -15 -20 -15 -13 0 -20 -7 -20 -20 0 -13 -7 -20
-20 -20 -17 0 -20 -7 -20 -51 0 -42 3 -52 20 -56 11 -3 20 -9 20 -14 0 -5 45
-9 100 -9 l100 0 0 65 c0 37 -4 65 -10 65 -5 0 -10 9 -10 20 0 13 -7 20 -20
20 -11 0 -20 7 -20 15 0 11 -12 15 -50 15 -38 0 -50 -4 -50 -15z"/>
<path d="M432 168 c-34 -34 6 -90 48 -68 35 19 20 80 -20 80 -9 0 -21 -5 -28
-12z m51 -22 c9 -22 -19 -42 -37 -26 -19 15 -10 40 14 40 10 0 20 -6 23 -14z"/>
<path d="M2332 168 c-34 -34 6 -90 48 -68 35 19 20 80 -20 80 -9 0 -21 -5 -28
-12z m51 -22 c9 -22 -19 -42 -37 -26 -19 15 -10 40 14 40 10 0 20 -6 23 -14z"/>
<path d="M4232 168 c-34 -34 6 -90 48 -68 35 19 20 80 -20 80 -9 0 -21 -5 -28
-12z m51 -22 c3 -8 -1 -20 -9 -26 -18 -16 -46 4 -37 26 7 18 39 18 46 0z"/>
</g>
</svg>
