<?xml version="1.0" standalone="no"?>
<!DOCTYPE svg PUBLIC "-//W3C//DTD SVG 20010904//EN"
 "http://www.w3.org/TR/2001/REC-SVG-20010904/DTD/svg10.dtd">
<svg version="1.0" xmlns="http://www.w3.org/2000/svg"
 width="512.000000pt" height="512.000000pt" viewBox="0 0 512.000000 512.000000"
 preserveAspectRatio="xMidYMid meet">

<g transform="translate(0.000000,512.000000) scale(0.100000,-0.100000)"
fill="#000000" stroke="none">
<path d="M2285 4675 c-811 -106 -1495 -672 -1749 -1446 -75 -229 -106 -422
-106 -669 0 -247 31 -440 106 -669 151 -461 457 -854 879 -1131 178 -116 454
-231 675 -280 211 -47 495 -63 705 -40 382 43 751 191 1065 428 181 137 403
387 530 596 368 610 401 1386 86 2031 -321 655 -959 1106 -1678 1184 -128 14
-388 12 -513 -4z m410 -850 c287 -60 505 -329 505 -625 0 -297 -218 -565 -510
-626 -277 -58 -575 85 -699 337 -126 255 -80 541 118 740 156 155 370 219 586
174z m199 -1725 c231 -49 426 -131 613 -256 126 -83 289 -232 310 -281 37 -89
4 -166 -118 -273 -661 -581 -1614 -581 -2278 1 -109 95 -136 142 -129 220 6
61 30 95 132 187 240 217 549 363 883 417 133 22 457 14 587 -15z"/>
</g>
</svg>
